<svg width="1200" height="1200" viewBox="0 0 1200 1200" fill="none" xmlns="http://www.w3.org/2000/svg">
<g clip-path="url(#clip0_9_99)">
<rect width="1200" height="1200" fill="#CCF5F5"/>
<path d="M1411 1035V966.952C1411 945.175 1403.34 925.023 1390.32 908.607M1191 966.952C1191 911.748 1240.25 867 1301 867C1322.09 867 1341.81 872.393 1358.54 881.751L1191 966.952Z" stroke="#6DD1D8" stroke-width="30" stroke-linejoin="round"/>
<path d="M909 -5H840.952C819.175 -5 799.023 2.66383 782.607 15.6744M840.952 215C785.748 215 741 165.751 741 105C741 83.9051 746.393 64.1967 755.751 47.4555L840.952 215Z" stroke="#CFCFAF" stroke-width="30" stroke-linejoin="round"/>
<path d="M1117.5 1115H1114.36C1092.07 1115 1074 1133.13 1074 1155.5C1074 1177.87 1092.07 1196 1114.36 1196H1207.64C1229.93 1196 1248 1177.87 1248 1155.5C1248 1133.13 1229.93 1115 1207.64 1115H1204.5" stroke="#073639" stroke-width="30" stroke-linejoin="round"/>
<path d="M764 1200C738.04 1200 717 1178.96 717 1153C717 1127.04 738.04 1106 764 1106" stroke="#89C7AA" stroke-width="30" stroke-linejoin="round"/>
<path d="M1164.56 223C1186.34 223 1204 205.539 1204 184C1204 162.461 1186.34 145 1164.56 145H1120" stroke="#6DD1D8" stroke-width="30" stroke-linejoin="round"/>
<path d="M444 93.5V35.1527C444 18.4998 457.434 5 474 5C490.566 5 504 18.4998 504 35.1527V151.847C504 168.5 490.566 182 474 182C457.434 182 444 168.5 444 151.847V137.75" stroke="#6DD1D8" stroke-width="30" stroke-linejoin="round"/>
<path d="M388 14V165.829C388 211.211 424.936 248 470.5 248C516.064 248 553 211.211 553 165.829V129.957" stroke="#89C7AA" stroke-width="30" stroke-linejoin="round"/>
<path d="M976 57H1155.98C1224.47 57 1280 112.741 1280 181.5C1280 250.259 1224.47 306 1155.98 306H1101.83" stroke="#89C7AA" stroke-width="30" stroke-linejoin="round"/>
<path d="M216 361V415.993C216 455.762 248.236 488 288 488" stroke="#89C7AA" stroke-width="30" stroke-linejoin="round"/>
<path d="M105 750V663.92C105 614.356 143.841 572.837 196 562" stroke="#6DD1D8" stroke-width="30" stroke-linejoin="round"/>
<path d="M1098.5 440.5H1203.81C1264.45 440.5 1315.24 487.877 1328.5 551.5" stroke="#073639" stroke-width="30"/>
<path d="M328.999 368L329 167.197C329 127.877 297.212 96 258 96" stroke="#6DD1D8" stroke-width="30" stroke-linejoin="round"/>
<path d="M1001 248C1018.67 248 1033 233.673 1033 216C1033 198.327 1018.67 184 1001 184C983.327 184 969 198.327 969 216C969 233.673 983.327 248 1001 248Z" stroke="#89C7AA" stroke-width="30" stroke-linejoin="round"/>
<path d="M1001 306C1051.81 306 1093 265.482 1093 215.5C1093 165.518 1051.81 125 1001 125C950.193 125 909 165.518 909 215.5" stroke="#6DD1D8" stroke-width="30" stroke-linejoin="round"/>
<path d="M845.5 67C824.789 67 808 83.7889 808 104.5C808 125.211 824.789 142 845.5 142C866.211 142 883 125.211 883 104.5V67" stroke="#073639" stroke-width="30" stroke-linejoin="round"/>
<path d="M697.5 812.758C673.477 812.758 654 832.06 654 855.875C654 879.691 673.477 899 697.5 899C721.523 899 741 879.691 741 855.875V724" stroke="#CFCFAF" stroke-width="30" stroke-linejoin="round"/>
<path d="M527.831 1106.5C527.831 1128.31 545.334 1146 566.92 1146C588.505 1146 606 1128.31 606 1106.5C606 1084.69 588.505 1067 566.92 1067H436" stroke="#6DD1D8" stroke-width="30" stroke-linejoin="round"/>
<path d="M363.792 1122H463.208C483.53 1122 500 1138.56 500 1159C500 1179.44 483.53 1196 463.208 1196H363.792C343.473 1196 327 1179.44 327 1159C327 1138.56 343.473 1122 363.792 1122Z" stroke="#CFCFAF" stroke-width="30" stroke-linejoin="round"/>
<path d="M179 262C179 311.706 138.706 352 89 352C39.2942 352 -1 311.706 -1 262" stroke="#6DD1D8" stroke-width="30" stroke-linejoin="round"/>
<path d="M257 307V197.002C257 175.462 239.539 158 218 158C196.461 158 179 175.462 179 197.002V214.028" stroke="#073639" stroke-width="30" stroke-linejoin="round"/>
<path d="M26 451C40.9117 451 53 439.136 53 424.5C53 409.864 40.9117 398 26 398C11.0883 398 -1 409.864 -1 424.5C-1 439.136 11.0883 451 26 451Z" stroke="#073639" stroke-width="30" stroke-linejoin="round"/>
<path d="M49 245.225V134.775C49 113.36 66.461 96 88 96C109.539 96 127 113.36 127 134.775V245.225C127 266.64 109.539 284 88 284C66.461 284 49 266.64 49 245.225Z" stroke="#CFCFAF" stroke-width="30" stroke-linejoin="round"/>
<path d="M942 307H853.925C798.188 307 753 352.219 753 408" stroke="#6DD1D8" stroke-width="30" stroke-linejoin="round"/>
<path d="M1029.5 501C1007.69 501 990 518.461 990 540C990 561.539 1007.69 579 1029.5 579C1051.31 579 1069 561.539 1069 540V501" stroke="#6DD1D8" stroke-width="30" stroke-linejoin="round"/>
<path d="M1217.63 733H1212.53C1183.52 733 1160 709.495 1160 680.5C1160 651.505 1183.52 628 1212.53 628H1372.47C1401.48 628 1425 651.505 1425 680.5C1425 709.495 1401.48 733 1372.47 733H1370.9" stroke="#073639" stroke-width="30" stroke-linejoin="round"/>
<path d="M1120 501H1184.53C1227.87 501 1263 535.922 1263 579" stroke="#89C7AA" stroke-width="30" stroke-linejoin="round"/>
<path d="M451 895C471.987 895 489 878.211 489 857.5C489 836.789 471.987 820 451 820C430.013 820 413 836.789 413 857.5C413 878.211 430.013 895 451 895Z" stroke="#073639" stroke-width="30" stroke-linejoin="round"/>
<path d="M358.404 835.52C344.46 887.644 374.621 941.026 425.76 954.756C476.9 968.487 529.657 937.361 543.597 885.237C557.538 833.114 527.38 779.732 476.241 766" stroke="#CFCFAF" stroke-width="30" stroke-linejoin="round"/>
<path d="M427.659 765.602H242.399C206.696 765.583 177.739 736.08 177.723 699.702C177.706 663.323 206.633 633.846 242.336 633.864C278.038 633.883 306.996 663.385 307.012 699.764H246.692" stroke="#073639" stroke-width="30"/>
<path d="M423.5 552C423.5 560.958 423.5 673.732 423.5 729" stroke="#89C7AA" stroke-width="30" stroke-linejoin="round"/>
<path d="M83.0196 1107C66.9922 1107 54 1094.24 54 1078.5C54 1062.76 66.9922 1050 83.0196 1050H114" stroke="#CFCFAF" stroke-width="30" stroke-linejoin="round"/>
<path d="M-3 1108C-3 1057.19 -43.5181 1016 -93.5 1016C-143.482 1016 -184 1057.19 -184 1108C-184 1158.81 -143.482 1200 -93.5 1200" stroke="#073639" stroke-width="30" stroke-linejoin="round"/>
<path d="M151 1050H188.905C214.363 1050 235 1030.3 235 1006C235 981.698 214.363 962 188.905 962H113.095C87.6373 962 67 981.698 67 1006" stroke="#073639" stroke-width="30" stroke-linejoin="round"/>
<path d="M-2 987C-2 940.612 35.4448 903 81.6361 903H229" stroke="#073639" stroke-width="30" stroke-linejoin="round"/>
<path d="M368.5 652C368.5 655.695 368.5 702.206 368.5 725" stroke="#6DD1D8" stroke-width="30" stroke-linejoin="round"/>
<path d="M484.085 445.5C484.085 468.42 465.713 487 443.042 487C420.372 487 402 468.42 402 445.5C402 422.58 420.372 404 443.042 404H575" stroke="#6DD1D8" stroke-width="30" stroke-linejoin="round"/>
<path d="M628 534.5V476.153C628 459.5 641.434 446 658 446C674.566 446 688 459.5 688 476.153V592.847C688 609.5 674.566 623 658 623C641.434 623 628 609.5 628 592.847V578.75" stroke="#CFCFAF" stroke-width="30" stroke-linejoin="round"/>
<path d="M576 446V597.829C576 643.211 612.936 680 658.5 680C704.064 680 741 643.211 741 597.829V561.957" stroke="#89C7AA" stroke-width="30" stroke-linejoin="round"/>
<path d="M589 311H545.695C514.383 311 489 336.52 489 368" stroke="#073639" stroke-width="30" stroke-linejoin="round"/>
<path d="M627.5 268C627.5 274.07 627.5 366.553 627.5 404" stroke="#6DD1D8" stroke-width="30" stroke-linejoin="round"/>
<path d="M876 490.149V503.332C876 521.927 860.828 537 842.124 537C823.413 537 808.241 521.927 808.241 503.332V492.412C808.241 473.959 793.187 459 774.624 459C756.054 459 741 473.959 741 492.412V505.851" stroke="#89C7AA" stroke-width="30" stroke-linejoin="round"/>
<path d="M-99 667.879C-99 641.437 -77.5094 620 -51 620C-24.4906 620 -3 641.437 -3 667.879V780.121C-3 806.564 -24.4906 828 -51 828C-77.5094 828 -99 806.564 -99 780.121V667.879Z" stroke="#89C7AA" stroke-width="30" stroke-linejoin="round"/>
<path d="M808 885.437C808 863.66 825.459 846 847 846C868.541 846 886 863.66 886 885.437V930" stroke="#6DD1D8" stroke-width="30" stroke-linejoin="round"/>
<path d="M968.5 864C991.42 864 1010 845.644 1010 823C1010 800.356 991.42 782 968.5 782C945.58 782 927 800.356 927 823C927 845.644 945.58 864 968.5 864Z" stroke="#6DD1D8" stroke-width="30" stroke-linejoin="round"/>
<path d="M887.733 1004.5C887.733 1025.21 871.001 1042 850.367 1042C829.732 1042 813 1025.21 813 1004.5C813 983.789 829.732 967 850.367 967H990" stroke="#CFCFAF" stroke-width="30" stroke-linejoin="round"/>
<path d="M841 728H977.163C1028.99 728 1071 770.089 1071 822C1071 873.911 1028.99 916 977.163 916H936.203" stroke="#073639" stroke-width="30" stroke-linejoin="round"/>
<path d="M1039 967H1082.15C1125.7 967 1161 1002.45 1161 1046.19V1127" stroke="#CFCFAF" stroke-width="30" stroke-linejoin="round"/>
<path d="M1081 1073C1095.91 1073 1108 1061.14 1108 1046.5C1108 1031.86 1095.91 1020 1081 1020C1066.09 1020 1054 1031.86 1054 1046.5C1054 1061.14 1066.09 1073 1081 1073Z" stroke="#073639" stroke-width="30" stroke-linejoin="round"/>
<path d="M934.471 1136C934.49 1146 934.51 1156 934.529 1166" stroke="#89C7AA" stroke-width="30" stroke-linejoin="round"/>
<path d="M934.471 1077C934.49 1087 934.51 1097 934.529 1107" stroke="#CFCFAF" stroke-width="30" stroke-linejoin="round"/>
<path d="M747.471 1026C747.49 1036 747.51 1046 747.529 1056" stroke="#89C7AA" stroke-width="30" stroke-linejoin="round"/>
<path d="M747.471 967C747.49 977 747.51 987 747.529 997" stroke="#6DD1D8" stroke-width="30" stroke-linejoin="round"/>
<path d="M687.471 967C687.49 977 687.51 987 687.529 997" stroke="#CFCFAF" stroke-width="30" stroke-linejoin="round"/>
<path d="M271.471 888C271.49 898 271.51 908 271.529 918" stroke="#073639" stroke-width="30" stroke-linejoin="round"/>
<path d="M328.471 472C328.49 482 328.51 492 328.529 502" stroke="#89C7AA" stroke-width="30" stroke-linejoin="round"/>
<path d="M626.471 155C626.49 165 626.51 175 626.529 185" stroke="#89C7AA" stroke-width="30" stroke-linejoin="round"/>
<path d="M626.471 98C626.49 108 626.51 118 626.529 128" stroke="#073639" stroke-width="30" stroke-linejoin="round"/>
<path d="M955.471 632C955.49 642 955.51 652 955.529 662" stroke="#073639" stroke-width="30" stroke-linejoin="round"/>
<path d="M1026.47 632C1026.49 642 1026.51 652 1026.53 662" stroke="#073639" stroke-width="30" stroke-linejoin="round"/>
<path d="M1097.47 632C1097.49 642 1097.51 652 1097.53 662" stroke="#073639" stroke-width="30" stroke-linejoin="round"/>
<rect x="224" y="414" width="752" height="372" fill="#CCF5F5" stroke="#222831" stroke-width="28"/>
<path d="M402.224 566.6H371.024L365.072 581H349.136L379.088 513.8H394.448L424.496 581H408.176L402.224 566.6ZM397.328 554.792L386.672 529.064L376.016 554.792H397.328ZM460.94 528.584C465.74 528.584 470.092 529.704 473.996 531.944C477.964 534.12 481.068 537.224 483.308 541.256C485.548 545.224 486.668 549.864 486.668 555.176C486.668 560.488 485.548 565.16 483.308 569.192C481.068 573.16 477.964 576.264 473.996 578.504C470.092 580.68 465.74 581.768 460.94 581.768C453.836 581.768 448.428 579.528 444.716 575.048V581H430.412V509.768H445.388V534.824C449.164 530.664 454.348 528.584 460.94 528.584ZM458.348 569.48C462.188 569.48 465.324 568.2 467.756 565.64C470.252 563.016 471.5 559.528 471.5 555.176C471.5 550.824 470.252 547.368 467.756 544.808C465.324 542.184 462.188 540.872 458.348 540.872C454.508 540.872 451.34 542.184 448.844 544.808C446.412 547.368 445.196 550.824 445.196 555.176C445.196 559.528 446.412 563.016 448.844 565.64C451.34 568.2 454.508 569.48 458.348 569.48ZM521.269 581.768C515.829 581.768 510.933 580.648 506.581 578.408C502.293 576.104 498.933 572.936 496.501 568.904C494.069 564.872 492.853 560.296 492.853 555.176C492.853 550.056 494.069 545.48 496.501 541.448C498.933 537.416 502.293 534.28 506.581 532.04C510.933 529.736 515.829 528.584 521.269 528.584C526.709 528.584 531.573 529.736 535.861 532.04C540.149 534.28 543.509 537.416 545.941 541.448C548.373 545.48 549.589 550.056 549.589 555.176C549.589 560.296 548.373 564.872 545.941 568.904C543.509 572.936 540.149 576.104 535.861 578.408C531.573 580.648 526.709 581.768 521.269 581.768ZM521.269 569.48C525.109 569.48 528.245 568.2 530.677 565.64C533.173 563.016 534.421 559.528 534.421 555.176C534.421 550.824 533.173 547.368 530.677 544.808C528.245 542.184 525.109 540.872 521.269 540.872C517.429 540.872 514.261 542.184 511.765 544.808C509.269 547.368 508.021 550.824 508.021 555.176C508.021 559.528 509.269 563.016 511.765 565.64C514.261 568.2 517.429 569.48 521.269 569.48ZM611.632 529.352V581H597.424V574.856C595.44 577.096 593.072 578.824 590.32 580.04C587.568 581.192 584.592 581.768 581.392 581.768C574.608 581.768 569.232 579.816 565.264 575.912C561.296 572.008 559.312 566.216 559.312 558.536V529.352H574.288V556.328C574.288 564.648 577.776 568.808 584.752 568.808C588.336 568.808 591.216 567.656 593.392 565.352C595.568 562.984 596.656 559.496 596.656 554.888V529.352H611.632ZM658.818 578.504C657.346 579.592 655.522 580.424 653.346 581C651.234 581.512 648.994 581.768 646.626 581.768C640.482 581.768 635.714 580.2 632.322 577.064C628.994 573.928 627.33 569.32 627.33 563.24V542.024H619.362V530.504H627.33V517.928H642.306V530.504H655.17V542.024H642.306V563.048C642.306 565.224 642.85 566.92 643.938 568.136C645.09 569.288 646.69 569.864 648.738 569.864C651.106 569.864 653.122 569.224 654.786 567.944L658.818 578.504ZM760.556 528.584C767.02 528.584 772.14 530.504 775.916 534.344C779.756 538.12 781.676 543.816 781.676 551.432V581H766.7V553.736C766.7 549.64 765.836 546.6 764.108 544.616C762.444 542.568 760.044 541.544 756.908 541.544C753.388 541.544 750.604 542.696 748.556 545C746.508 547.24 745.484 550.6 745.484 555.08V581H730.508V553.736C730.508 545.608 727.244 541.544 720.716 541.544C717.26 541.544 714.508 542.696 712.46 545C710.412 547.24 709.388 550.6 709.388 555.08V581H694.412V529.352H708.716V535.304C710.636 533.128 712.972 531.464 715.724 530.312C718.54 529.16 721.612 528.584 724.94 528.584C728.588 528.584 731.884 529.32 734.828 530.792C737.772 532.2 740.14 534.28 741.932 537.032C744.044 534.344 746.7 532.264 749.9 530.792C753.164 529.32 756.716 528.584 760.556 528.584ZM846.254 555.368C846.254 555.56 846.158 556.904 845.966 559.4H806.894C807.598 562.6 809.262 565.128 811.886 566.984C814.51 568.84 817.774 569.768 821.678 569.768C824.366 569.768 826.734 569.384 828.782 568.616C830.894 567.784 832.846 566.504 834.638 564.776L842.606 573.416C837.742 578.984 830.638 581.768 821.294 581.768C815.47 581.768 810.318 580.648 805.838 578.408C801.358 576.104 797.902 572.936 795.47 568.904C793.038 564.872 791.822 560.296 791.822 555.176C791.822 550.12 793.006 545.576 795.374 541.544C797.806 537.448 801.102 534.28 805.262 532.04C809.486 529.736 814.19 528.584 819.374 528.584C824.43 528.584 829.006 529.672 833.102 531.848C837.198 534.024 840.398 537.16 842.702 541.256C845.07 545.288 846.254 549.992 846.254 555.368ZM819.47 539.912C816.078 539.912 813.23 540.872 810.926 542.792C808.622 544.712 807.214 547.336 806.702 550.664H832.142C831.63 547.4 830.222 544.808 827.918 542.888C825.614 540.904 822.798 539.912 819.47 539.912Z" fill="#222831"/>
<path d="M623.74 699.995C623.74 686.881 613.109 676.25 599.995 676.25C586.881 676.25 576.25 686.881 576.25 699.995C576.25 713.109 586.881 723.74 599.995 723.74C613.109 723.74 623.74 713.109 623.74 699.995Z" fill="#DDDDDD"/>
<path d="M600 675C596.783 675.003 593.596 675.627 590.615 676.838L612.264 717.98L608.678 676.773H609.243C609.236 676.77 609.228 676.768 609.221 676.765H608.678V676.556C605.9 675.527 602.962 675.001 600 675L600 675ZM614.833 679.878L617.611 717.72C619.949 715.399 621.806 712.638 623.074 709.597C624.342 706.556 624.997 703.295 625 700C625 696.084 624.079 692.223 622.314 688.728C620.548 685.233 617.985 682.202 614.833 679.878V679.878ZM581.83 682.839C577.446 687.478 575.003 693.617 575 700C575.001 703.78 575.859 707.511 577.51 710.912C579.161 714.312 581.562 717.294 584.531 719.633L581.83 682.839ZM587.439 683.071L590.558 723.137C593.555 724.364 596.762 724.996 600 725C603.015 724.997 606.004 724.448 608.823 723.38V723.38H608.674L587.439 683.071Z" fill="#222831"/>
</g>
<defs>
<clipPath id="clip0_9_99">
<rect width="1200" height="1200" fill="white"/>
</clipPath>
</defs>
</svg>
