<svg width="1200" height="1200" viewBox="0 0 1200 1200" fill="none" xmlns="http://www.w3.org/2000/svg">
<g clip-path="url(#clip0_3_2)">
<rect width="1200" height="1200" fill="#CCF5F5"/>
<path d="M1411 1035V966.952C1411 945.175 1403.34 925.023 1390.32 908.607M1191 966.952C1191 911.748 1240.25 867 1301 867C1322.09 867 1341.81 872.393 1358.54 881.751L1191 966.952Z" stroke="#6DD1D8" stroke-width="30" stroke-linejoin="round"/>
<path d="M909 -5H840.952C819.175 -5 799.023 2.66383 782.607 15.6744M840.952 215C785.748 215 741 165.751 741 105C741 83.9051 746.393 64.1967 755.751 47.4555L840.952 215Z" stroke="#CFCFAF" stroke-width="30" stroke-linejoin="round"/>
<path d="M1117.5 1115H1114.36C1092.07 1115 1074 1133.13 1074 1155.5C1074 1177.87 1092.07 1196 1114.36 1196H1207.64C1229.93 1196 1248 1177.87 1248 1155.5C1248 1133.13 1229.93 1115 1207.64 1115H1204.5" stroke="#073639" stroke-width="30" stroke-linejoin="round"/>
<path d="M764 1200C738.04 1200 717 1178.96 717 1153C717 1127.04 738.04 1106 764 1106" stroke="#89C7AA" stroke-width="30" stroke-linejoin="round"/>
<path d="M1164.56 223C1186.34 223 1204 205.539 1204 184C1204 162.461 1186.34 145 1164.56 145H1120" stroke="#6DD1D8" stroke-width="30" stroke-linejoin="round"/>
<path d="M444 93.5V35.1527C444 18.4998 457.434 5 474 5C490.566 5 504 18.4998 504 35.1527V151.847C504 168.5 490.566 182 474 182C457.434 182 444 168.5 444 151.847V137.75" stroke="#6DD1D8" stroke-width="30" stroke-linejoin="round"/>
<path d="M388 14V165.829C388 211.211 424.936 248 470.5 248C516.064 248 553 211.211 553 165.829V129.957" stroke="#89C7AA" stroke-width="30" stroke-linejoin="round"/>
<path d="M976 57H1155.98C1224.47 57 1280 112.741 1280 181.5C1280 250.259 1224.47 306 1155.98 306H1101.83" stroke="#89C7AA" stroke-width="30" stroke-linejoin="round"/>
<path d="M216 361V415.993C216 455.762 248.236 488 288 488" stroke="#89C7AA" stroke-width="30" stroke-linejoin="round"/>
<path d="M105 750V663.92C105 614.356 143.841 572.837 196 562" stroke="#6DD1D8" stroke-width="30" stroke-linejoin="round"/>
<path d="M1098.5 440.5H1203.81C1264.45 440.5 1315.24 487.877 1328.5 551.5" stroke="#073639" stroke-width="30"/>
<path d="M328.999 368L329 167.197C329 127.877 297.212 96 258 96" stroke="#6DD1D8" stroke-width="30" stroke-linejoin="round"/>
<path d="M1001 248C1018.67 248 1033 233.673 1033 216C1033 198.327 1018.67 184 1001 184C983.327 184 969 198.327 969 216C969 233.673 983.327 248 1001 248Z" stroke="#89C7AA" stroke-width="30" stroke-linejoin="round"/>
<path d="M1001 306C1051.81 306 1093 265.482 1093 215.5C1093 165.518 1051.81 125 1001 125C950.193 125 909 165.518 909 215.5" stroke="#6DD1D8" stroke-width="30" stroke-linejoin="round"/>
<path d="M845.5 67C824.789 67 808 83.7889 808 104.5C808 125.211 824.789 142 845.5 142C866.211 142 883 125.211 883 104.5V67" stroke="#073639" stroke-width="30" stroke-linejoin="round"/>
<path d="M697.5 812.758C673.477 812.758 654 832.06 654 855.875C654 879.691 673.477 899 697.5 899C721.523 899 741 879.691 741 855.875V724" stroke="#CFCFAF" stroke-width="30" stroke-linejoin="round"/>
<path d="M527.831 1106.5C527.831 1128.31 545.334 1146 566.92 1146C588.505 1146 606 1128.31 606 1106.5C606 1084.69 588.505 1067 566.92 1067H436" stroke="#6DD1D8" stroke-width="30" stroke-linejoin="round"/>
<path d="M363.792 1122H463.208C483.53 1122 500 1138.56 500 1159C500 1179.44 483.53 1196 463.208 1196H363.792C343.473 1196 327 1179.44 327 1159C327 1138.56 343.473 1122 363.792 1122Z" stroke="#CFCFAF" stroke-width="30" stroke-linejoin="round"/>
<path d="M179 262C179 311.706 138.706 352 89 352C39.2942 352 -1 311.706 -1 262" stroke="#6DD1D8" stroke-width="30" stroke-linejoin="round"/>
<path d="M257 307V197.002C257 175.462 239.539 158 218 158C196.461 158 179 175.462 179 197.002V214.028" stroke="#073639" stroke-width="30" stroke-linejoin="round"/>
<path d="M26 451C40.9117 451 53 439.136 53 424.5C53 409.864 40.9117 398 26 398C11.0883 398 -1 409.864 -1 424.5C-1 439.136 11.0883 451 26 451Z" stroke="#073639" stroke-width="30" stroke-linejoin="round"/>
<path d="M49 245.225V134.775C49 113.36 66.461 96 88 96C109.539 96 127 113.36 127 134.775V245.225C127 266.64 109.539 284 88 284C66.461 284 49 266.64 49 245.225Z" stroke="#CFCFAF" stroke-width="30" stroke-linejoin="round"/>
<path d="M942 307H853.925C798.188 307 753 352.219 753 408" stroke="#6DD1D8" stroke-width="30" stroke-linejoin="round"/>
<path d="M1029.5 501C1007.69 501 990 518.461 990 540C990 561.539 1007.69 579 1029.5 579C1051.31 579 1069 561.539 1069 540V501" stroke="#6DD1D8" stroke-width="30" stroke-linejoin="round"/>
<path d="M1217.63 733H1212.53C1183.52 733 1160 709.495 1160 680.5C1160 651.505 1183.52 628 1212.53 628H1372.47C1401.48 628 1425 651.505 1425 680.5C1425 709.495 1401.48 733 1372.47 733H1370.9" stroke="#073639" stroke-width="30" stroke-linejoin="round"/>
<path d="M1120 501H1184.53C1227.87 501 1263 535.922 1263 579" stroke="#89C7AA" stroke-width="30" stroke-linejoin="round"/>
<path d="M451 895C471.987 895 489 878.211 489 857.5C489 836.789 471.987 820 451 820C430.013 820 413 836.789 413 857.5C413 878.211 430.013 895 451 895Z" stroke="#073639" stroke-width="30" stroke-linejoin="round"/>
<path d="M358.404 835.52C344.46 887.644 374.621 941.026 425.76 954.756C476.9 968.487 529.657 937.361 543.597 885.237C557.538 833.114 527.38 779.732 476.241 766" stroke="#CFCFAF" stroke-width="30" stroke-linejoin="round"/>
<path d="M427.659 765.602H242.399C206.696 765.583 177.739 736.08 177.723 699.702C177.706 663.323 206.633 633.846 242.336 633.864C278.038 633.883 306.996 663.385 307.011 699.764H246.692" stroke="#073639" stroke-width="30"/>
<path d="M423.5 552C423.5 560.958 423.5 673.732 423.5 729" stroke="#89C7AA" stroke-width="30" stroke-linejoin="round"/>
<path d="M83.0196 1107C66.9922 1107 54 1094.24 54 1078.5C54 1062.76 66.9922 1050 83.0196 1050H114" stroke="#CFCFAF" stroke-width="30" stroke-linejoin="round"/>
<path d="M-3 1108C-3 1057.19 -43.5181 1016 -93.5 1016C-143.482 1016 -184 1057.19 -184 1108C-184 1158.81 -143.482 1200 -93.5 1200" stroke="#073639" stroke-width="30" stroke-linejoin="round"/>
<path d="M151 1050H188.905C214.363 1050 235 1030.3 235 1006C235 981.698 214.363 962 188.905 962H113.095C87.6373 962 67 981.698 67 1006" stroke="#073639" stroke-width="30" stroke-linejoin="round"/>
<path d="M-2 987C-2 940.612 35.4448 903 81.6361 903H229" stroke="#073639" stroke-width="30" stroke-linejoin="round"/>
<path d="M368.5 652C368.5 655.695 368.5 702.206 368.5 725" stroke="#6DD1D8" stroke-width="30" stroke-linejoin="round"/>
<path d="M484.085 445.5C484.085 468.42 465.713 487 443.042 487C420.372 487 402 468.42 402 445.5C402 422.58 420.372 404 443.042 404H575" stroke="#6DD1D8" stroke-width="30" stroke-linejoin="round"/>
<path d="M628 534.5V476.153C628 459.5 641.434 446 658 446C674.566 446 688 459.5 688 476.153V592.847C688 609.5 674.566 623 658 623C641.434 623 628 609.5 628 592.847V578.75" stroke="#CFCFAF" stroke-width="30" stroke-linejoin="round"/>
<path d="M576 446V597.829C576 643.211 612.936 680 658.5 680C704.064 680 741 643.211 741 597.829V561.957" stroke="#89C7AA" stroke-width="30" stroke-linejoin="round"/>
<path d="M589 311H545.695C514.383 311 489 336.52 489 368" stroke="#073639" stroke-width="30" stroke-linejoin="round"/>
<path d="M627.5 268C627.5 274.07 627.5 366.553 627.5 404" stroke="#6DD1D8" stroke-width="30" stroke-linejoin="round"/>
<path d="M876 490.149V503.332C876 521.927 860.828 537 842.124 537C823.413 537 808.241 521.927 808.241 503.332V492.412C808.241 473.959 793.187 459 774.624 459C756.054 459 741 473.959 741 492.412V505.851" stroke="#89C7AA" stroke-width="30" stroke-linejoin="round"/>
<path d="M-99 667.879C-99 641.437 -77.5094 620 -51 620C-24.4906 620 -3 641.437 -3 667.879V780.121C-3 806.564 -24.4906 828 -51 828C-77.5094 828 -99 806.564 -99 780.121V667.879Z" stroke="#89C7AA" stroke-width="30" stroke-linejoin="round"/>
<path d="M808 885.437C808 863.66 825.459 846 847 846C868.541 846 886 863.66 886 885.437V930" stroke="#6DD1D8" stroke-width="30" stroke-linejoin="round"/>
<path d="M968.5 864C991.42 864 1010 845.644 1010 823C1010 800.356 991.42 782 968.5 782C945.58 782 927 800.356 927 823C927 845.644 945.58 864 968.5 864Z" stroke="#6DD1D8" stroke-width="30" stroke-linejoin="round"/>
<path d="M887.733 1004.5C887.733 1025.21 871.001 1042 850.367 1042C829.732 1042 813 1025.21 813 1004.5C813 983.789 829.732 967 850.367 967H990" stroke="#CFCFAF" stroke-width="30" stroke-linejoin="round"/>
<path d="M841 728H977.163C1028.99 728 1071 770.089 1071 822C1071 873.911 1028.99 916 977.163 916H936.203" stroke="#073639" stroke-width="30" stroke-linejoin="round"/>
<path d="M1039 967H1082.15C1125.7 967 1161 1002.45 1161 1046.19V1127" stroke="#CFCFAF" stroke-width="30" stroke-linejoin="round"/>
<path d="M1081 1073C1095.91 1073 1108 1061.14 1108 1046.5C1108 1031.86 1095.91 1020 1081 1020C1066.09 1020 1054 1031.86 1054 1046.5C1054 1061.14 1066.09 1073 1081 1073Z" stroke="#073639" stroke-width="30" stroke-linejoin="round"/>
<path d="M934.471 1136C934.49 1146 934.51 1156 934.529 1166" stroke="#89C7AA" stroke-width="30" stroke-linejoin="round"/>
<path d="M934.471 1077C934.49 1087 934.51 1097 934.529 1107" stroke="#CFCFAF" stroke-width="30" stroke-linejoin="round"/>
<path d="M747.471 1026C747.49 1036 747.51 1046 747.529 1056" stroke="#89C7AA" stroke-width="30" stroke-linejoin="round"/>
<path d="M747.471 967C747.49 977 747.51 987 747.529 997" stroke="#6DD1D8" stroke-width="30" stroke-linejoin="round"/>
<path d="M687.471 967C687.49 977 687.51 987 687.529 997" stroke="#CFCFAF" stroke-width="30" stroke-linejoin="round"/>
<path d="M271.471 888C271.49 898 271.51 908 271.529 918" stroke="#073639" stroke-width="30" stroke-linejoin="round"/>
<path d="M328.471 472C328.49 482 328.51 492 328.529 502" stroke="#89C7AA" stroke-width="30" stroke-linejoin="round"/>
<path d="M626.471 155C626.49 165 626.51 175 626.529 185" stroke="#89C7AA" stroke-width="30" stroke-linejoin="round"/>
<path d="M626.471 98C626.49 108 626.51 118 626.529 128" stroke="#073639" stroke-width="30" stroke-linejoin="round"/>
<path d="M955.471 632C955.49 642 955.51 652 955.529 662" stroke="#073639" stroke-width="30" stroke-linejoin="round"/>
<path d="M1026.47 632C1026.49 642 1026.51 652 1026.53 662" stroke="#073639" stroke-width="30" stroke-linejoin="round"/>
<path d="M1097.47 632C1097.49 642 1097.51 652 1097.53 662" stroke="#073639" stroke-width="30" stroke-linejoin="round"/>
<path d="M837.5 600C837.5 468.832 731.168 362.5 600 362.5C468.832 362.5 362.5 468.832 362.5 600C362.5 731.168 468.832 837.5 600 837.5C731.168 837.5 837.5 731.168 837.5 600Z" fill="#DDDDDD"/>
<path d="M600.049 350C567.869 350.031 535.997 356.272 506.183 368.383L722.718 779.883L686.849 367.737H692.5C692.426 367.708 692.353 367.679 692.279 367.65H686.849V365.565C659.066 355.276 629.676 350.005 600.049 350L600.049 350ZM748.412 398.792L776.194 777.283C799.584 754.069 818.155 726.46 830.838 696.044C843.522 665.628 850.068 633.005 850.1 600.05C850.097 560.884 840.893 522.266 823.23 487.308C805.567 452.35 779.939 422.031 748.412 398.792V398.792ZM418.318 428.405C374.469 474.802 350.027 536.212 350 600.05C350.01 637.859 358.594 675.174 375.106 709.187C391.618 743.2 415.628 773.026 445.331 796.42L418.318 428.405ZM474.412 430.722L505.607 831.467C535.584 843.736 567.659 850.064 600.049 850.1C630.203 850.065 660.102 844.577 688.303 833.9V833.896H686.803L474.412 430.722Z" fill="#222831"/>
</g>
<defs>
<clipPath id="clip0_3_2">
<rect width="1200" height="1200" fill="white"/>
</clipPath>
</defs>
</svg>
