<svg width="1200" height="1200" viewBox="0 0 1200 1200" fill="none" xmlns="http://www.w3.org/2000/svg">
<g clip-path="url(#clip0_8_3)">
<rect width="1200" height="1200" fill="#CCF5F5"/>
<path d="M1411 1035V966.952C1411 945.175 1403.34 925.023 1390.32 908.607M1191 966.952C1191 911.748 1240.25 867 1301 867C1322.09 867 1341.81 872.393 1358.54 881.751L1191 966.952Z" stroke="#6DD1D8" stroke-width="30" stroke-linejoin="round"/>
<path d="M909 -5H840.952C819.175 -5 799.023 2.66383 782.607 15.6744M840.952 215C785.748 215 741 165.751 741 105C741 83.9051 746.393 64.1967 755.751 47.4555L840.952 215Z" stroke="#CFCFAF" stroke-width="30" stroke-linejoin="round"/>
<path d="M1117.5 1115H1114.36C1092.07 1115 1074 1133.13 1074 1155.5C1074 1177.87 1092.07 1196 1114.36 1196H1207.64C1229.93 1196 1248 1177.87 1248 1155.5C1248 1133.13 1229.93 1115 1207.64 1115H1204.5" stroke="#073639" stroke-width="30" stroke-linejoin="round"/>
<path d="M764 1200C738.04 1200 717 1178.96 717 1153C717 1127.04 738.04 1106 764 1106" stroke="#89C7AA" stroke-width="30" stroke-linejoin="round"/>
<path d="M1164.56 223C1186.34 223 1204 205.539 1204 184C1204 162.461 1186.34 145 1164.56 145H1120" stroke="#6DD1D8" stroke-width="30" stroke-linejoin="round"/>
<path d="M444 93.5V35.1527C444 18.4998 457.434 5 474 5C490.566 5 504 18.4998 504 35.1527V151.847C504 168.5 490.566 182 474 182C457.434 182 444 168.5 444 151.847V137.75" stroke="#6DD1D8" stroke-width="30" stroke-linejoin="round"/>
<path d="M388 14V165.829C388 211.211 424.936 248 470.5 248C516.064 248 553 211.211 553 165.829V129.957" stroke="#89C7AA" stroke-width="30" stroke-linejoin="round"/>
<path d="M976 57H1155.98C1224.47 57 1280 112.741 1280 181.5C1280 250.259 1224.47 306 1155.98 306H1101.83" stroke="#89C7AA" stroke-width="30" stroke-linejoin="round"/>
<path d="M216 361V415.993C216 455.762 248.236 488 288 488" stroke="#89C7AA" stroke-width="30" stroke-linejoin="round"/>
<path d="M105 750V663.92C105 614.356 143.841 572.837 196 562" stroke="#6DD1D8" stroke-width="30" stroke-linejoin="round"/>
<path d="M1098.5 440.5H1203.81C1264.45 440.5 1315.24 487.877 1328.5 551.5" stroke="#073639" stroke-width="30"/>
<path d="M328.999 368L329 167.197C329 127.877 297.212 96 258 96" stroke="#6DD1D8" stroke-width="30" stroke-linejoin="round"/>
<path d="M1001 248C1018.67 248 1033 233.673 1033 216C1033 198.327 1018.67 184 1001 184C983.327 184 969 198.327 969 216C969 233.673 983.327 248 1001 248Z" stroke="#89C7AA" stroke-width="30" stroke-linejoin="round"/>
<path d="M1001 306C1051.81 306 1093 265.482 1093 215.5C1093 165.518 1051.81 125 1001 125C950.193 125 909 165.518 909 215.5" stroke="#6DD1D8" stroke-width="30" stroke-linejoin="round"/>
<path d="M845.5 67C824.789 67 808 83.7889 808 104.5C808 125.211 824.789 142 845.5 142C866.211 142 883 125.211 883 104.5V67" stroke="#073639" stroke-width="30" stroke-linejoin="round"/>
<path d="M697.5 812.758C673.477 812.758 654 832.06 654 855.875C654 879.691 673.477 899 697.5 899C721.523 899 741 879.691 741 855.875V724" stroke="#CFCFAF" stroke-width="30" stroke-linejoin="round"/>
<path d="M527.831 1106.5C527.831 1128.31 545.334 1146 566.92 1146C588.505 1146 606 1128.31 606 1106.5C606 1084.69 588.505 1067 566.92 1067H436" stroke="#6DD1D8" stroke-width="30" stroke-linejoin="round"/>
<path d="M363.792 1122H463.208C483.53 1122 500 1138.56 500 1159C500 1179.44 483.53 1196 463.208 1196H363.792C343.473 1196 327 1179.44 327 1159C327 1138.56 343.473 1122 363.792 1122Z" stroke="#CFCFAF" stroke-width="30" stroke-linejoin="round"/>
<path d="M179 262C179 311.706 138.706 352 89 352C39.2942 352 -1 311.706 -1 262" stroke="#6DD1D8" stroke-width="30" stroke-linejoin="round"/>
<path d="M257 307V197.002C257 175.462 239.539 158 218 158C196.461 158 179 175.462 179 197.002V214.028" stroke="#073639" stroke-width="30" stroke-linejoin="round"/>
<path d="M26 451C40.9117 451 53 439.136 53 424.5C53 409.864 40.9117 398 26 398C11.0883 398 -1 409.864 -1 424.5C-1 439.136 11.0883 451 26 451Z" stroke="#073639" stroke-width="30" stroke-linejoin="round"/>
<path d="M49 245.225V134.775C49 113.36 66.461 96 88 96C109.539 96 127 113.36 127 134.775V245.225C127 266.64 109.539 284 88 284C66.461 284 49 266.64 49 245.225Z" stroke="#CFCFAF" stroke-width="30" stroke-linejoin="round"/>
<path d="M942 307H853.925C798.188 307 753 352.219 753 408" stroke="#6DD1D8" stroke-width="30" stroke-linejoin="round"/>
<path d="M1029.5 501C1007.69 501 990 518.461 990 540C990 561.539 1007.69 579 1029.5 579C1051.31 579 1069 561.539 1069 540V501" stroke="#6DD1D8" stroke-width="30" stroke-linejoin="round"/>
<path d="M1217.63 733H1212.53C1183.52 733 1160 709.495 1160 680.5C1160 651.505 1183.52 628 1212.53 628H1372.47C1401.48 628 1425 651.505 1425 680.5C1425 709.495 1401.48 733 1372.47 733H1370.9" stroke="#073639" stroke-width="30" stroke-linejoin="round"/>
<path d="M1120 501H1184.53C1227.87 501 1263 535.922 1263 579" stroke="#89C7AA" stroke-width="30" stroke-linejoin="round"/>
<path d="M451 895C471.987 895 489 878.211 489 857.5C489 836.789 471.987 820 451 820C430.013 820 413 836.789 413 857.5C413 878.211 430.013 895 451 895Z" stroke="#073639" stroke-width="30" stroke-linejoin="round"/>
<path d="M358.404 835.52C344.46 887.644 374.621 941.026 425.76 954.756C476.9 968.487 529.657 937.361 543.597 885.237C557.538 833.114 527.38 779.732 476.241 766" stroke="#CFCFAF" stroke-width="30" stroke-linejoin="round"/>
<path d="M427.659 765.602H242.399C206.696 765.583 177.739 736.08 177.723 699.702C177.706 663.323 206.633 633.846 242.336 633.864C278.038 633.883 306.996 663.385 307.012 699.764H246.692" stroke="#073639" stroke-width="30"/>
<path d="M423.5 552C423.5 560.958 423.5 673.732 423.5 729" stroke="#89C7AA" stroke-width="30" stroke-linejoin="round"/>
<path d="M83.0196 1107C66.9922 1107 54 1094.24 54 1078.5C54 1062.76 66.9922 1050 83.0196 1050H114" stroke="#CFCFAF" stroke-width="30" stroke-linejoin="round"/>
<path d="M-3 1108C-3 1057.19 -43.5181 1016 -93.5 1016C-143.482 1016 -184 1057.19 -184 1108C-184 1158.81 -143.482 1200 -93.5 1200" stroke="#073639" stroke-width="30" stroke-linejoin="round"/>
<path d="M151 1050H188.905C214.363 1050 235 1030.3 235 1006C235 981.698 214.363 962 188.905 962H113.095C87.6373 962 67 981.698 67 1006" stroke="#073639" stroke-width="30" stroke-linejoin="round"/>
<path d="M-2 987C-2 940.612 35.4448 903 81.6361 903H229" stroke="#073639" stroke-width="30" stroke-linejoin="round"/>
<path d="M368.5 652C368.5 655.695 368.5 702.206 368.5 725" stroke="#6DD1D8" stroke-width="30" stroke-linejoin="round"/>
<path d="M484.085 445.5C484.085 468.42 465.713 487 443.042 487C420.372 487 402 468.42 402 445.5C402 422.58 420.372 404 443.042 404H575" stroke="#6DD1D8" stroke-width="30" stroke-linejoin="round"/>
<path d="M628 534.5V476.153C628 459.5 641.434 446 658 446C674.566 446 688 459.5 688 476.153V592.847C688 609.5 674.566 623 658 623C641.434 623 628 609.5 628 592.847V578.75" stroke="#CFCFAF" stroke-width="30" stroke-linejoin="round"/>
<path d="M576 446V597.829C576 643.211 612.936 680 658.5 680C704.064 680 741 643.211 741 597.829V561.957" stroke="#89C7AA" stroke-width="30" stroke-linejoin="round"/>
<path d="M589 311H545.695C514.383 311 489 336.52 489 368" stroke="#073639" stroke-width="30" stroke-linejoin="round"/>
<path d="M627.5 268C627.5 274.07 627.5 366.553 627.5 404" stroke="#6DD1D8" stroke-width="30" stroke-linejoin="round"/>
<path d="M876 490.149V503.332C876 521.927 860.828 537 842.124 537C823.413 537 808.241 521.927 808.241 503.332V492.412C808.241 473.959 793.187 459 774.624 459C756.054 459 741 473.959 741 492.412V505.851" stroke="#89C7AA" stroke-width="30" stroke-linejoin="round"/>
<path d="M-99 667.879C-99 641.437 -77.5094 620 -51 620C-24.4906 620 -3 641.437 -3 667.879V780.121C-3 806.564 -24.4906 828 -51 828C-77.5094 828 -99 806.564 -99 780.121V667.879Z" stroke="#89C7AA" stroke-width="30" stroke-linejoin="round"/>
<path d="M808 885.437C808 863.66 825.459 846 847 846C868.541 846 886 863.66 886 885.437V930" stroke="#6DD1D8" stroke-width="30" stroke-linejoin="round"/>
<path d="M968.5 864C991.42 864 1010 845.644 1010 823C1010 800.356 991.42 782 968.5 782C945.58 782 927 800.356 927 823C927 845.644 945.58 864 968.5 864Z" stroke="#6DD1D8" stroke-width="30" stroke-linejoin="round"/>
<path d="M887.733 1004.5C887.733 1025.21 871.001 1042 850.367 1042C829.732 1042 813 1025.21 813 1004.5C813 983.789 829.732 967 850.367 967H990" stroke="#CFCFAF" stroke-width="30" stroke-linejoin="round"/>
<path d="M841 728H977.163C1028.99 728 1071 770.089 1071 822C1071 873.911 1028.99 916 977.163 916H936.203" stroke="#073639" stroke-width="30" stroke-linejoin="round"/>
<path d="M1039 967H1082.15C1125.7 967 1161 1002.45 1161 1046.19V1127" stroke="#CFCFAF" stroke-width="30" stroke-linejoin="round"/>
<path d="M1081 1073C1095.91 1073 1108 1061.14 1108 1046.5C1108 1031.86 1095.91 1020 1081 1020C1066.09 1020 1054 1031.86 1054 1046.5C1054 1061.14 1066.09 1073 1081 1073Z" stroke="#073639" stroke-width="30" stroke-linejoin="round"/>
<path d="M934.471 1136C934.49 1146 934.51 1156 934.529 1166" stroke="#89C7AA" stroke-width="30" stroke-linejoin="round"/>
<path d="M934.471 1077C934.49 1087 934.51 1097 934.529 1107" stroke="#CFCFAF" stroke-width="30" stroke-linejoin="round"/>
<path d="M747.471 1026C747.49 1036 747.51 1046 747.529 1056" stroke="#89C7AA" stroke-width="30" stroke-linejoin="round"/>
<path d="M747.471 967C747.49 977 747.51 987 747.529 997" stroke="#6DD1D8" stroke-width="30" stroke-linejoin="round"/>
<path d="M687.471 967C687.49 977 687.51 987 687.529 997" stroke="#CFCFAF" stroke-width="30" stroke-linejoin="round"/>
<path d="M271.471 888C271.49 898 271.51 908 271.529 918" stroke="#073639" stroke-width="30" stroke-linejoin="round"/>
<path d="M328.471 472C328.49 482 328.51 492 328.529 502" stroke="#89C7AA" stroke-width="30" stroke-linejoin="round"/>
<path d="M626.471 155C626.49 165 626.51 175 626.529 185" stroke="#89C7AA" stroke-width="30" stroke-linejoin="round"/>
<path d="M626.471 98C626.49 108 626.51 118 626.529 128" stroke="#073639" stroke-width="30" stroke-linejoin="round"/>
<path d="M955.471 632C955.49 642 955.51 652 955.529 662" stroke="#073639" stroke-width="30" stroke-linejoin="round"/>
<path d="M1026.47 632C1026.49 642 1026.51 652 1026.53 662" stroke="#073639" stroke-width="30" stroke-linejoin="round"/>
<path d="M1097.47 632C1097.49 642 1097.51 652 1097.53 662" stroke="#073639" stroke-width="30" stroke-linejoin="round"/>
<rect x="224" y="414" width="752" height="372" fill="#CCF5F5" stroke="#222831" stroke-width="28"/>
<path d="M401.736 513.8V581H394.92V527.24L368.52 572.456H365.16L338.76 527.528V581H331.944V513.8H337.8L366.984 563.624L395.88 513.8H401.736ZM464.624 530.504L439.376 587.048C437.328 591.784 434.96 595.144 432.272 597.128C429.584 599.112 426.352 600.104 422.576 600.104C420.144 600.104 417.872 599.72 415.76 598.952C413.648 598.184 411.823 597.032 410.287 595.496L413.456 590.408C416.016 592.968 419.088 594.248 422.672 594.248C424.976 594.248 426.928 593.608 428.528 592.328C430.192 591.048 431.728 588.872 433.136 585.8L435.344 580.904L412.784 530.504H419.888L438.896 573.416L457.904 530.504H464.624ZM525.94 513.8C534.516 513.8 541.236 515.848 546.1 519.944C550.964 524.04 553.396 529.672 553.396 536.84C553.396 544.008 550.964 549.64 546.1 553.736C541.236 557.768 534.516 559.784 525.94 559.784H507.892V581H500.788V513.8H525.94ZM525.748 553.544C532.404 553.544 537.492 552.104 541.012 549.224C544.532 546.28 546.292 542.152 546.292 536.84C546.292 531.4 544.532 527.24 541.012 524.36C537.492 521.416 532.404 519.944 525.748 519.944H507.892V553.544H525.748ZM572.532 540.392C574.132 537 576.5 534.44 579.636 532.712C582.836 530.984 586.772 530.12 591.444 530.12V536.744L589.812 536.648C584.5 536.648 580.34 538.28 577.332 541.544C574.324 544.808 572.82 549.384 572.82 555.272V581H566.004V530.504H572.532V540.392ZM623.957 581.48C619.093 581.48 614.709 580.392 610.805 578.216C606.901 575.976 603.829 572.904 601.589 569C599.349 565.096 598.229 560.68 598.229 555.752C598.229 550.824 599.349 546.408 601.589 542.504C603.829 538.6 606.901 535.56 610.805 533.384C614.709 531.208 619.093 530.12 623.957 530.12C628.821 530.12 633.205 531.208 637.109 533.384C641.013 535.56 644.053 538.6 646.229 542.504C648.469 546.408 649.589 550.824 649.589 555.752C649.589 560.68 648.469 565.096 646.229 569C644.053 572.904 641.013 575.976 637.109 578.216C633.205 580.392 628.821 581.48 623.957 581.48ZM623.957 575.432C627.541 575.432 630.741 574.632 633.557 573.032C636.437 571.368 638.677 569.032 640.277 566.024C641.877 563.016 642.677 559.592 642.677 555.752C642.677 551.912 641.877 548.488 640.277 545.48C638.677 542.472 636.437 540.168 633.557 538.568C630.741 536.904 627.541 536.072 623.957 536.072C620.373 536.072 617.141 536.904 614.261 538.568C611.445 540.168 609.205 542.472 607.541 545.48C605.941 548.488 605.141 551.912 605.141 555.752C605.141 559.592 605.941 563.016 607.541 566.024C609.205 569.032 611.445 571.368 614.261 573.032C617.141 574.632 620.373 575.432 623.957 575.432ZM656.016 600.104C653.904 600.104 651.92 599.816 650.064 599.24C648.144 598.728 646.576 597.928 645.36 596.84L647.76 591.656C649.744 593.384 652.368 594.248 655.632 594.248C658.32 594.248 660.368 593.448 661.776 591.848C663.248 590.248 663.984 587.88 663.984 584.744V530.504H670.8V584.744C670.8 589.48 669.52 593.224 666.96 595.976C664.4 598.728 660.752 600.104 656.016 600.104ZM667.44 519.368C666.032 519.368 664.848 518.888 663.888 517.928C662.928 516.968 662.448 515.816 662.448 514.472C662.448 513.192 662.928 512.072 663.888 511.112C664.848 510.152 666.032 509.672 667.44 509.672C668.848 509.672 670.032 510.152 670.992 511.112C671.952 512.008 672.432 513.096 672.432 514.376C672.432 515.784 671.952 516.968 670.992 517.928C670.032 518.888 668.848 519.368 667.44 519.368ZM733.816 557.864H691.576C691.96 563.112 693.976 567.368 697.624 570.632C701.272 573.832 705.88 575.432 711.448 575.432C714.584 575.432 717.464 574.888 720.088 573.8C722.712 572.648 724.984 570.984 726.904 568.808L730.744 573.224C728.504 575.912 725.688 577.96 722.296 579.368C718.968 580.776 715.288 581.48 711.256 581.48C706.072 581.48 701.464 580.392 697.432 578.216C693.464 575.976 690.36 572.904 688.12 569C685.88 565.096 684.76 560.68 684.76 555.752C684.76 550.824 685.816 546.408 687.928 542.504C690.104 538.6 693.048 535.56 696.76 533.384C700.536 531.208 704.76 530.12 709.432 530.12C714.104 530.12 718.296 531.208 722.008 533.384C725.72 535.56 728.632 538.6 730.744 542.504C732.856 546.344 733.912 550.76 733.912 555.752L733.816 557.864ZM709.432 535.976C704.568 535.976 700.472 537.544 697.144 540.68C693.88 543.752 692.024 547.784 691.576 552.776H727.384C726.936 547.784 725.048 543.752 721.72 540.68C718.456 537.544 714.36 535.976 709.432 535.976ZM768.713 581.48C763.721 581.48 759.241 580.392 755.273 578.216C751.369 576.04 748.297 573 746.057 569.096C743.817 565.128 742.697 560.68 742.697 555.752C742.697 550.824 743.817 546.408 746.057 542.504C748.297 538.6 751.369 535.56 755.273 533.384C759.241 531.208 763.721 530.12 768.713 530.12C773.065 530.12 776.937 530.984 780.329 532.712C783.785 534.376 786.505 536.84 788.489 540.104L783.401 543.56C781.737 541.064 779.625 539.208 777.065 537.992C774.505 536.712 771.721 536.072 768.713 536.072C765.065 536.072 761.769 536.904 758.825 538.568C755.945 540.168 753.673 542.472 752.009 545.48C750.409 548.488 749.609 551.912 749.609 555.752C749.609 559.656 750.409 563.112 752.009 566.12C753.673 569.064 755.945 571.368 758.825 573.032C761.769 574.632 765.065 575.432 768.713 575.432C771.721 575.432 774.505 574.824 777.065 573.608C779.625 572.392 781.737 570.536 783.401 568.04L788.489 571.496C786.505 574.76 783.785 577.256 780.329 578.984C776.873 580.648 773.001 581.48 768.713 581.48ZM829.034 577.928C827.754 579.08 826.154 579.976 824.234 580.616C822.378 581.192 820.426 581.48 818.378 581.48C813.642 581.48 809.994 580.2 807.434 577.64C804.874 575.08 803.594 571.464 803.594 566.792V536.264H794.57V530.504H803.594V519.464H810.41V530.504H825.77V536.264H810.41V566.408C810.41 569.416 811.146 571.72 812.618 573.32C814.154 574.856 816.33 575.624 819.146 575.624C820.554 575.624 821.898 575.4 823.178 574.952C824.522 574.504 825.674 573.864 826.634 573.032L829.034 577.928ZM854.978 581.48C850.882 581.48 846.946 580.904 843.17 579.752C839.458 578.536 836.546 577.032 834.434 575.24L837.506 569.864C839.618 571.528 842.274 572.904 845.474 573.992C848.674 575.016 852.002 575.528 855.458 575.528C860.066 575.528 863.458 574.824 865.634 573.416C867.874 571.944 868.994 569.896 868.994 567.272C868.994 565.416 868.386 563.976 867.17 562.952C865.954 561.864 864.418 561.064 862.562 560.552C860.706 559.976 858.242 559.432 855.17 558.92C851.074 558.152 847.778 557.384 845.282 556.616C842.786 555.784 840.642 554.408 838.85 552.488C837.122 550.568 836.258 547.912 836.258 544.52C836.258 540.296 838.018 536.84 841.538 534.152C845.058 531.464 849.954 530.12 856.226 530.12C859.49 530.12 862.754 530.568 866.018 531.464C869.282 532.296 871.97 533.416 874.082 534.824L871.106 540.296C866.946 537.416 861.986 535.976 856.226 535.976C851.874 535.976 848.578 536.744 846.338 538.28C844.162 539.816 843.074 541.832 843.074 544.328C843.074 546.248 843.682 547.784 844.898 548.936C846.178 550.088 847.746 550.952 849.602 551.528C851.458 552.04 854.018 552.584 857.281 553.16C861.314 553.928 864.546 554.696 866.978 555.464C869.41 556.232 871.49 557.544 873.218 559.4C874.946 561.256 875.81 563.816 875.81 567.08C875.81 571.496 873.954 575.016 870.242 577.64C866.594 580.2 861.506 581.48 854.978 581.48Z" fill="black"/>
<path d="M623.74 699.995C623.74 686.881 613.109 676.25 599.995 676.25C586.881 676.25 576.25 686.881 576.25 699.995C576.25 713.109 586.881 723.74 599.995 723.74C613.109 723.74 623.74 713.109 623.74 699.995Z" fill="#DDDDDD"/>
<path d="M600 675C596.783 675.003 593.596 675.627 590.615 676.838L612.264 717.98L608.678 676.773H609.243C609.236 676.77 609.228 676.768 609.221 676.765H608.678V676.556C605.9 675.527 602.962 675.001 600 675L600 675ZM614.833 679.878L617.611 717.72C619.949 715.399 621.806 712.638 623.074 709.597C624.342 706.556 624.997 703.295 625 700C625 696.084 624.079 692.223 622.314 688.728C620.548 685.233 617.985 682.202 614.833 679.878V679.878ZM581.83 682.839C577.446 687.478 575.003 693.617 575 700C575.001 703.78 575.859 707.511 577.51 710.912C579.161 714.312 581.562 717.294 584.531 719.633L581.83 682.839ZM587.439 683.071L590.558 723.137C593.555 724.364 596.762 724.996 600 725C603.015 724.997 606.004 724.448 608.823 723.38V723.38H608.674L587.439 683.071Z" fill="#222831"/>
</g>
<defs>
<clipPath id="clip0_8_3">
<rect width="1200" height="1200" fill="white"/>
</clipPath>
</defs>
</svg>
