<svg width="1200" height="1200" viewBox="0 0 1200 1200" fill="none" xmlns="http://www.w3.org/2000/svg">
<g clip-path="url(#clip0_9_277)">
<rect width="1200" height="1200" fill="#CCF5F5"/>
<path d="M1411 1035V966.952C1411 945.175 1403.34 925.023 1390.32 908.607M1191 966.952C1191 911.748 1240.25 867 1301 867C1322.09 867 1341.81 872.393 1358.54 881.751L1191 966.952Z" stroke="#6DD1D8" stroke-width="30" stroke-linejoin="round"/>
<path d="M909 -5H840.952C819.175 -5 799.023 2.66383 782.607 15.6744M840.952 215C785.748 215 741 165.751 741 105C741 83.9051 746.393 64.1967 755.751 47.4555L840.952 215Z" stroke="#CFCFAF" stroke-width="30" stroke-linejoin="round"/>
<path d="M1117.5 1115H1114.36C1092.07 1115 1074 1133.13 1074 1155.5C1074 1177.87 1092.07 1196 1114.36 1196H1207.64C1229.93 1196 1248 1177.87 1248 1155.5C1248 1133.13 1229.93 1115 1207.64 1115H1204.5" stroke="#073639" stroke-width="30" stroke-linejoin="round"/>
<path d="M764 1200C738.04 1200 717 1178.96 717 1153C717 1127.04 738.04 1106 764 1106" stroke="#89C7AA" stroke-width="30" stroke-linejoin="round"/>
<path d="M1164.56 223C1186.34 223 1204 205.539 1204 184C1204 162.461 1186.34 145 1164.56 145H1120" stroke="#6DD1D8" stroke-width="30" stroke-linejoin="round"/>
<path d="M444 93.5V35.1527C444 18.4998 457.434 5 474 5C490.566 5 504 18.4998 504 35.1527V151.847C504 168.5 490.566 182 474 182C457.434 182 444 168.5 444 151.847V137.75" stroke="#6DD1D8" stroke-width="30" stroke-linejoin="round"/>
<path d="M388 14V165.829C388 211.211 424.936 248 470.5 248C516.064 248 553 211.211 553 165.829V129.957" stroke="#89C7AA" stroke-width="30" stroke-linejoin="round"/>
<path d="M976 57H1155.98C1224.47 57 1280 112.741 1280 181.5C1280 250.259 1224.47 306 1155.98 306H1101.83" stroke="#89C7AA" stroke-width="30" stroke-linejoin="round"/>
<path d="M216 361V415.993C216 455.762 248.236 488 288 488" stroke="#89C7AA" stroke-width="30" stroke-linejoin="round"/>
<path d="M105 750V663.92C105 614.356 143.841 572.837 196 562" stroke="#6DD1D8" stroke-width="30" stroke-linejoin="round"/>
<path d="M1098.5 440.5H1203.81C1264.45 440.5 1315.24 487.877 1328.5 551.5" stroke="#073639" stroke-width="30"/>
<path d="M328.999 368L329 167.197C329 127.877 297.212 96 258 96" stroke="#6DD1D8" stroke-width="30" stroke-linejoin="round"/>
<path d="M1001 248C1018.67 248 1033 233.673 1033 216C1033 198.327 1018.67 184 1001 184C983.327 184 969 198.327 969 216C969 233.673 983.327 248 1001 248Z" stroke="#89C7AA" stroke-width="30" stroke-linejoin="round"/>
<path d="M1001 306C1051.81 306 1093 265.482 1093 215.5C1093 165.518 1051.81 125 1001 125C950.193 125 909 165.518 909 215.5" stroke="#6DD1D8" stroke-width="30" stroke-linejoin="round"/>
<path d="M845.5 67C824.789 67 808 83.7889 808 104.5C808 125.211 824.789 142 845.5 142C866.211 142 883 125.211 883 104.5V67" stroke="#073639" stroke-width="30" stroke-linejoin="round"/>
<path d="M697.5 812.758C673.477 812.758 654 832.06 654 855.875C654 879.691 673.477 899 697.5 899C721.523 899 741 879.691 741 855.875V724" stroke="#CFCFAF" stroke-width="30" stroke-linejoin="round"/>
<path d="M527.831 1106.5C527.831 1128.31 545.334 1146 566.92 1146C588.505 1146 606 1128.31 606 1106.5C606 1084.69 588.505 1067 566.92 1067H436" stroke="#6DD1D8" stroke-width="30" stroke-linejoin="round"/>
<path d="M363.792 1122H463.208C483.53 1122 500 1138.56 500 1159C500 1179.44 483.53 1196 463.208 1196H363.792C343.473 1196 327 1179.44 327 1159C327 1138.56 343.473 1122 363.792 1122Z" stroke="#CFCFAF" stroke-width="30" stroke-linejoin="round"/>
<path d="M179 262C179 311.706 138.706 352 89 352C39.2942 352 -1 311.706 -1 262" stroke="#6DD1D8" stroke-width="30" stroke-linejoin="round"/>
<path d="M257 307V197.002C257 175.462 239.539 158 218 158C196.461 158 179 175.462 179 197.002V214.028" stroke="#073639" stroke-width="30" stroke-linejoin="round"/>
<path d="M26 451C40.9117 451 53 439.136 53 424.5C53 409.864 40.9117 398 26 398C11.0883 398 -1 409.864 -1 424.5C-1 439.136 11.0883 451 26 451Z" stroke="#073639" stroke-width="30" stroke-linejoin="round"/>
<path d="M49 245.225V134.775C49 113.36 66.461 96 88 96C109.539 96 127 113.36 127 134.775V245.225C127 266.64 109.539 284 88 284C66.461 284 49 266.64 49 245.225Z" stroke="#CFCFAF" stroke-width="30" stroke-linejoin="round"/>
<path d="M942 307H853.925C798.188 307 753 352.219 753 408" stroke="#6DD1D8" stroke-width="30" stroke-linejoin="round"/>
<path d="M1029.5 501C1007.69 501 990 518.461 990 540C990 561.539 1007.69 579 1029.5 579C1051.31 579 1069 561.539 1069 540V501" stroke="#6DD1D8" stroke-width="30" stroke-linejoin="round"/>
<path d="M1217.63 733H1212.53C1183.52 733 1160 709.495 1160 680.5C1160 651.505 1183.52 628 1212.53 628H1372.47C1401.48 628 1425 651.505 1425 680.5C1425 709.495 1401.48 733 1372.47 733H1370.9" stroke="#073639" stroke-width="30" stroke-linejoin="round"/>
<path d="M1120 501H1184.53C1227.87 501 1263 535.922 1263 579" stroke="#89C7AA" stroke-width="30" stroke-linejoin="round"/>
<path d="M451 895C471.987 895 489 878.211 489 857.5C489 836.789 471.987 820 451 820C430.013 820 413 836.789 413 857.5C413 878.211 430.013 895 451 895Z" stroke="#073639" stroke-width="30" stroke-linejoin="round"/>
<path d="M358.404 835.52C344.46 887.644 374.621 941.026 425.76 954.756C476.9 968.487 529.657 937.361 543.597 885.237C557.538 833.114 527.38 779.732 476.241 766" stroke="#CFCFAF" stroke-width="30" stroke-linejoin="round"/>
<path d="M427.659 765.602H242.399C206.696 765.583 177.739 736.08 177.723 699.702C177.706 663.323 206.633 633.846 242.336 633.864C278.038 633.883 306.996 663.385 307.012 699.764H246.692" stroke="#073639" stroke-width="30"/>
<path d="M423.5 552C423.5 560.958 423.5 673.732 423.5 729" stroke="#89C7AA" stroke-width="30" stroke-linejoin="round"/>
<path d="M83.0196 1107C66.9922 1107 54 1094.24 54 1078.5C54 1062.76 66.9922 1050 83.0196 1050H114" stroke="#CFCFAF" stroke-width="30" stroke-linejoin="round"/>
<path d="M-3 1108C-3 1057.19 -43.5181 1016 -93.5 1016C-143.482 1016 -184 1057.19 -184 1108C-184 1158.81 -143.482 1200 -93.5 1200" stroke="#073639" stroke-width="30" stroke-linejoin="round"/>
<path d="M151 1050H188.905C214.363 1050 235 1030.3 235 1006C235 981.698 214.363 962 188.905 962H113.095C87.6373 962 67 981.698 67 1006" stroke="#073639" stroke-width="30" stroke-linejoin="round"/>
<path d="M-2 987C-2 940.612 35.4448 903 81.6361 903H229" stroke="#073639" stroke-width="30" stroke-linejoin="round"/>
<path d="M368.5 652C368.5 655.695 368.5 702.206 368.5 725" stroke="#6DD1D8" stroke-width="30" stroke-linejoin="round"/>
<path d="M484.085 445.5C484.085 468.42 465.713 487 443.042 487C420.372 487 402 468.42 402 445.5C402 422.58 420.372 404 443.042 404H575" stroke="#6DD1D8" stroke-width="30" stroke-linejoin="round"/>
<path d="M628 534.5V476.153C628 459.5 641.434 446 658 446C674.566 446 688 459.5 688 476.153V592.847C688 609.5 674.566 623 658 623C641.434 623 628 609.5 628 592.847V578.75" stroke="#CFCFAF" stroke-width="30" stroke-linejoin="round"/>
<path d="M576 446V597.829C576 643.211 612.936 680 658.5 680C704.064 680 741 643.211 741 597.829V561.957" stroke="#89C7AA" stroke-width="30" stroke-linejoin="round"/>
<path d="M589 311H545.695C514.383 311 489 336.52 489 368" stroke="#073639" stroke-width="30" stroke-linejoin="round"/>
<path d="M627.5 268C627.5 274.07 627.5 366.553 627.5 404" stroke="#6DD1D8" stroke-width="30" stroke-linejoin="round"/>
<path d="M876 490.149V503.332C876 521.927 860.828 537 842.124 537C823.413 537 808.241 521.927 808.241 503.332V492.412C808.241 473.959 793.187 459 774.624 459C756.054 459 741 473.959 741 492.412V505.851" stroke="#89C7AA" stroke-width="30" stroke-linejoin="round"/>
<path d="M-99 667.879C-99 641.437 -77.5094 620 -51 620C-24.4906 620 -3 641.437 -3 667.879V780.121C-3 806.564 -24.4906 828 -51 828C-77.5094 828 -99 806.564 -99 780.121V667.879Z" stroke="#89C7AA" stroke-width="30" stroke-linejoin="round"/>
<path d="M808 885.437C808 863.66 825.459 846 847 846C868.541 846 886 863.66 886 885.437V930" stroke="#6DD1D8" stroke-width="30" stroke-linejoin="round"/>
<path d="M968.5 864C991.42 864 1010 845.644 1010 823C1010 800.356 991.42 782 968.5 782C945.58 782 927 800.356 927 823C927 845.644 945.58 864 968.5 864Z" stroke="#6DD1D8" stroke-width="30" stroke-linejoin="round"/>
<path d="M887.733 1004.5C887.733 1025.21 871.001 1042 850.367 1042C829.732 1042 813 1025.21 813 1004.5C813 983.789 829.732 967 850.367 967H990" stroke="#CFCFAF" stroke-width="30" stroke-linejoin="round"/>
<path d="M841 728H977.163C1028.99 728 1071 770.089 1071 822C1071 873.911 1028.99 916 977.163 916H936.203" stroke="#073639" stroke-width="30" stroke-linejoin="round"/>
<path d="M1039 967H1082.15C1125.7 967 1161 1002.45 1161 1046.19V1127" stroke="#CFCFAF" stroke-width="30" stroke-linejoin="round"/>
<path d="M1081 1073C1095.91 1073 1108 1061.14 1108 1046.5C1108 1031.86 1095.91 1020 1081 1020C1066.09 1020 1054 1031.86 1054 1046.5C1054 1061.14 1066.09 1073 1081 1073Z" stroke="#073639" stroke-width="30" stroke-linejoin="round"/>
<path d="M934.472 1136C934.491 1146 934.51 1156 934.529 1166" stroke="#89C7AA" stroke-width="30" stroke-linejoin="round"/>
<path d="M934.472 1077C934.491 1087 934.51 1097 934.529 1107" stroke="#CFCFAF" stroke-width="30" stroke-linejoin="round"/>
<path d="M747.472 1026C747.491 1036 747.51 1046 747.529 1056" stroke="#89C7AA" stroke-width="30" stroke-linejoin="round"/>
<path d="M747.472 967C747.491 977 747.51 987 747.529 997" stroke="#6DD1D8" stroke-width="30" stroke-linejoin="round"/>
<path d="M687.472 967C687.491 977 687.51 987 687.529 997" stroke="#CFCFAF" stroke-width="30" stroke-linejoin="round"/>
<path d="M271.472 888C271.491 898 271.51 908 271.529 918" stroke="#073639" stroke-width="30" stroke-linejoin="round"/>
<path d="M328.472 472C328.491 482 328.51 492 328.529 502" stroke="#89C7AA" stroke-width="30" stroke-linejoin="round"/>
<path d="M626.472 155C626.491 165 626.51 175 626.529 185" stroke="#89C7AA" stroke-width="30" stroke-linejoin="round"/>
<path d="M626.472 98C626.491 108 626.51 118 626.529 128" stroke="#073639" stroke-width="30" stroke-linejoin="round"/>
<path d="M955.472 632C955.491 642 955.51 652 955.529 662" stroke="#073639" stroke-width="30" stroke-linejoin="round"/>
<path d="M1026.47 632C1026.49 642 1026.51 652 1026.53 662" stroke="#073639" stroke-width="30" stroke-linejoin="round"/>
<path d="M1097.47 632C1097.49 642 1097.51 652 1097.53 662" stroke="#073639" stroke-width="30" stroke-linejoin="round"/>
<rect x="224" y="414" width="752" height="372" fill="#CCF5F5" stroke="#222831" stroke-width="28"/>
<path d="M404.12 581L404.024 540.68L384.248 573.896H377.24L357.56 541.544V581H342.968V513.8H355.832L380.984 555.56L405.752 513.8H418.52L418.712 581H404.12ZM484.864 529.352L461.536 584.168C459.168 590.12 456.224 594.312 452.704 596.744C449.248 599.176 445.056 600.392 440.128 600.392C437.44 600.392 434.784 599.976 432.16 599.144C429.536 598.312 427.392 597.16 425.727 595.688L431.2 585.032C432.352 586.056 433.664 586.856 435.136 587.432C436.672 588.008 438.176 588.296 439.648 588.296C441.696 588.296 443.36 587.784 444.64 586.76C445.92 585.8 447.072 584.168 448.096 581.864L448.288 581.384L425.919 529.352H441.376L455.872 564.392L470.464 529.352H484.864ZM519.218 513.8H549.746C557.042 513.8 563.474 515.208 569.042 518.024C574.674 520.776 579.026 524.68 582.098 529.736C585.234 534.792 586.802 540.68 586.802 547.4C586.802 554.12 585.234 560.008 582.098 565.064C579.026 570.12 574.674 574.056 569.042 576.872C563.474 579.624 557.042 581 549.746 581H519.218V513.8ZM548.978 568.232C555.698 568.232 561.042 566.376 565.01 562.664C569.042 558.888 571.058 553.8 571.058 547.4C571.058 541 569.042 535.944 565.01 532.232C561.042 528.456 555.698 526.568 548.978 526.568H534.77V568.232H548.978ZM648.067 555.368C648.067 555.56 647.971 556.904 647.779 559.4H608.707C609.411 562.6 611.075 565.128 613.699 566.984C616.323 568.84 619.587 569.768 623.491 569.768C626.179 569.768 628.547 569.384 630.595 568.616C632.707 567.784 634.659 566.504 636.451 564.776L644.419 573.416C639.555 578.984 632.451 581.768 623.107 581.768C617.283 581.768 612.131 580.648 607.651 578.408C603.171 576.104 599.715 572.936 597.283 568.904C594.851 564.872 593.635 560.296 593.635 555.176C593.635 550.12 594.819 545.576 597.187 541.544C599.619 537.448 602.915 534.28 607.075 532.04C611.299 529.736 616.003 528.584 621.187 528.584C626.243 528.584 630.819 529.672 634.915 531.848C639.011 534.024 642.211 537.16 644.515 541.256C646.883 545.288 648.067 549.992 648.067 555.368ZM621.283 539.912C617.891 539.912 615.043 540.872 612.739 542.792C610.435 544.712 609.027 547.336 608.515 550.664H633.955C633.443 547.4 632.035 544.808 629.731 542.888C627.427 540.904 624.611 539.912 621.283 539.912ZM675.413 581.768C671.125 581.768 666.933 581.256 662.837 580.232C658.741 579.144 655.477 577.8 653.045 576.2L658.037 565.448C660.341 566.92 663.125 568.136 666.389 569.096C669.653 569.992 672.853 570.44 675.989 570.44C682.325 570.44 685.493 568.872 685.493 565.736C685.493 564.264 684.629 563.208 682.901 562.568C681.173 561.928 678.517 561.384 674.933 560.936C670.709 560.296 667.221 559.56 664.469 558.728C661.717 557.896 659.317 556.424 657.269 554.312C655.285 552.2 654.293 549.192 654.293 545.288C654.293 542.024 655.221 539.144 657.077 536.648C658.997 534.088 661.749 532.104 665.333 530.696C668.981 529.288 673.269 528.584 678.197 528.584C681.845 528.584 685.461 529 689.045 529.832C692.693 530.6 695.701 531.688 698.069 533.096L693.077 543.752C688.533 541.192 683.573 539.912 678.197 539.912C674.997 539.912 672.597 540.36 670.997 541.256C669.397 542.152 668.597 543.304 668.597 544.712C668.597 546.312 669.461 547.432 671.189 548.072C672.917 548.712 675.669 549.32 679.445 549.896C683.669 550.6 687.125 551.368 689.813 552.2C692.501 552.968 694.837 554.408 696.821 556.52C698.805 558.632 699.797 561.576 699.797 565.352C699.797 568.552 698.837 571.4 696.917 573.896C694.997 576.392 692.181 578.344 688.469 579.752C684.821 581.096 680.469 581.768 675.413 581.768ZM709.037 529.352H724.013V581H709.037V529.352ZM716.525 522.152C713.773 522.152 711.533 521.352 709.805 519.752C708.077 518.152 707.213 516.168 707.213 513.8C707.213 511.432 708.077 509.448 709.805 507.848C711.533 506.248 713.773 505.448 716.525 505.448C719.277 505.448 721.517 506.216 723.245 507.752C724.973 509.288 725.837 511.208 725.837 513.512C725.837 516.008 724.973 518.088 723.245 519.752C721.517 521.352 719.277 522.152 716.525 522.152ZM791.192 529.352V572.36C791.192 581.832 788.728 588.872 783.8 593.48C778.872 598.088 771.672 600.392 762.2 600.392C757.208 600.392 752.472 599.784 747.992 598.568C743.512 597.352 739.8 595.592 736.856 593.288L742.808 582.536C744.984 584.328 747.736 585.736 751.064 586.76C754.392 587.848 757.72 588.392 761.048 588.392C766.232 588.392 770.04 587.208 772.472 584.84C774.968 582.536 776.216 579.016 776.216 574.28V572.072C772.312 576.36 766.872 578.504 759.896 578.504C755.16 578.504 750.808 577.48 746.84 575.432C742.936 573.32 739.832 570.376 737.528 566.6C735.224 562.824 734.072 558.472 734.072 553.544C734.072 548.616 735.224 544.264 737.528 540.488C739.832 536.712 742.936 533.8 746.84 531.752C750.808 529.64 755.16 528.584 759.896 528.584C767.384 528.584 773.08 531.048 776.984 535.976V529.352H791.192ZM762.872 566.216C766.84 566.216 770.072 565.064 772.568 562.76C775.128 560.392 776.408 557.32 776.408 553.544C776.408 549.768 775.128 546.728 772.568 544.424C770.072 542.056 766.84 540.872 762.872 540.872C758.904 540.872 755.64 542.056 753.08 544.424C750.52 546.728 749.24 549.768 749.24 553.544C749.24 557.32 750.52 560.392 753.08 562.76C755.64 565.064 758.904 566.216 762.872 566.216ZM836.523 528.584C842.923 528.584 848.075 530.504 851.979 534.344C855.947 538.184 857.931 543.88 857.931 551.432V581H842.955V553.736C842.955 549.64 842.059 546.6 840.267 544.616C838.475 542.568 835.883 541.544 832.491 541.544C828.715 541.544 825.707 542.728 823.467 545.096C821.227 547.4 820.107 550.856 820.107 555.464V581H805.131V529.352H819.435V535.4C821.419 533.224 823.883 531.56 826.827 530.408C829.771 529.192 833.003 528.584 836.523 528.584Z" fill="#222831"/>
<path d="M623.74 699.995C623.74 686.881 613.109 676.25 599.995 676.25C586.881 676.25 576.25 686.881 576.25 699.995C576.25 713.109 586.881 723.74 599.995 723.74C613.109 723.74 623.74 713.109 623.74 699.995Z" fill="#DDDDDD"/>
<path d="M600 675C596.783 675.003 593.596 675.627 590.615 676.838L612.264 717.98L608.678 676.773H609.243C609.236 676.77 609.228 676.768 609.221 676.765H608.678V676.556C605.9 675.527 602.962 675.001 600 675L600 675ZM614.833 679.878L617.611 717.72C619.949 715.399 621.806 712.638 623.074 709.597C624.342 706.556 624.997 703.295 625 700C625 696.084 624.079 692.223 622.314 688.728C620.548 685.233 617.985 682.202 614.833 679.878V679.878ZM581.83 682.839C577.446 687.478 575.003 693.617 575 700C575.001 703.78 575.859 707.511 577.51 710.912C579.161 714.312 581.562 717.294 584.531 719.633L581.83 682.839ZM587.439 683.071L590.558 723.137C593.555 724.364 596.762 724.996 600 725C603.015 724.997 606.004 724.448 608.823 723.38V723.38H608.674L587.439 683.071Z" fill="#222831"/>
</g>
<defs>
<clipPath id="clip0_9_277">
<rect width="1200" height="1200" fill="white"/>
</clipPath>
</defs>
</svg>
