<svg width="1200" height="1200" viewBox="0 0 1200 1200" fill="none" xmlns="http://www.w3.org/2000/svg">
<g clip-path="url(#clip0_8_3)">
<rect width="1200" height="1200" fill="#CCF5F5"/>
<path d="M1411 1035V966.952C1411 945.175 1403.34 925.023 1390.32 908.607M1191 966.952C1191 911.748 1240.25 867 1301 867C1322.09 867 1341.81 872.393 1358.54 881.751L1191 966.952Z" stroke="#6DD1D8" stroke-width="30" stroke-linejoin="round"/>
<path d="M909 -5H840.952C819.175 -5 799.023 2.66383 782.607 15.6744M840.952 215C785.748 215 741 165.751 741 105C741 83.9051 746.393 64.1967 755.751 47.4555L840.952 215Z" stroke="#CFCFAF" stroke-width="30" stroke-linejoin="round"/>
<path d="M1117.5 1115H1114.36C1092.07 1115 1074 1133.13 1074 1155.5C1074 1177.87 1092.07 1196 1114.36 1196H1207.64C1229.93 1196 1248 1177.87 1248 1155.5C1248 1133.13 1229.93 1115 1207.64 1115H1204.5" stroke="#073639" stroke-width="30" stroke-linejoin="round"/>
<path d="M764 1200C738.04 1200 717 1178.96 717 1153C717 1127.04 738.04 1106 764 1106" stroke="#89C7AA" stroke-width="30" stroke-linejoin="round"/>
<path d="M1164.56 223C1186.34 223 1204 205.539 1204 184C1204 162.461 1186.34 145 1164.56 145H1120" stroke="#6DD1D8" stroke-width="30" stroke-linejoin="round"/>
<path d="M444 93.5V35.1527C444 18.4998 457.434 5 474 5C490.566 5 504 18.4998 504 35.1527V151.847C504 168.5 490.566 182 474 182C457.434 182 444 168.5 444 151.847V137.75" stroke="#6DD1D8" stroke-width="30" stroke-linejoin="round"/>
<path d="M388 14V165.829C388 211.211 424.936 248 470.5 248C516.064 248 553 211.211 553 165.829V129.957" stroke="#89C7AA" stroke-width="30" stroke-linejoin="round"/>
<path d="M976 57H1155.98C1224.47 57 1280 112.741 1280 181.5C1280 250.259 1224.47 306 1155.98 306H1101.83" stroke="#89C7AA" stroke-width="30" stroke-linejoin="round"/>
<path d="M216 361V415.993C216 455.762 248.236 488 288 488" stroke="#89C7AA" stroke-width="30" stroke-linejoin="round"/>
<path d="M105 750V663.92C105 614.356 143.841 572.837 196 562" stroke="#6DD1D8" stroke-width="30" stroke-linejoin="round"/>
<path d="M1098.5 440.5H1203.81C1264.45 440.5 1315.24 487.877 1328.5 551.5" stroke="#073639" stroke-width="30"/>
<path d="M328.999 368L329 167.197C329 127.877 297.212 96 258 96" stroke="#6DD1D8" stroke-width="30" stroke-linejoin="round"/>
<path d="M1001 248C1018.67 248 1033 233.673 1033 216C1033 198.327 1018.67 184 1001 184C983.327 184 969 198.327 969 216C969 233.673 983.327 248 1001 248Z" stroke="#89C7AA" stroke-width="30" stroke-linejoin="round"/>
<path d="M1001 306C1051.81 306 1093 265.482 1093 215.5C1093 165.518 1051.81 125 1001 125C950.193 125 909 165.518 909 215.5" stroke="#6DD1D8" stroke-width="30" stroke-linejoin="round"/>
<path d="M845.5 67C824.789 67 808 83.7889 808 104.5C808 125.211 824.789 142 845.5 142C866.211 142 883 125.211 883 104.5V67" stroke="#073639" stroke-width="30" stroke-linejoin="round"/>
<path d="M697.5 812.758C673.477 812.758 654 832.06 654 855.875C654 879.691 673.477 899 697.5 899C721.523 899 741 879.691 741 855.875V724" stroke="#CFCFAF" stroke-width="30" stroke-linejoin="round"/>
<path d="M527.831 1106.5C527.831 1128.31 545.334 1146 566.92 1146C588.505 1146 606 1128.31 606 1106.5C606 1084.69 588.505 1067 566.92 1067H436" stroke="#6DD1D8" stroke-width="30" stroke-linejoin="round"/>
<path d="M363.792 1122H463.208C483.53 1122 500 1138.56 500 1159C500 1179.44 483.53 1196 463.208 1196H363.792C343.473 1196 327 1179.44 327 1159C327 1138.56 343.473 1122 363.792 1122Z" stroke="#CFCFAF" stroke-width="30" stroke-linejoin="round"/>
<path d="M179 262C179 311.706 138.706 352 89 352C39.2942 352 -1 311.706 -1 262" stroke="#6DD1D8" stroke-width="30" stroke-linejoin="round"/>
<path d="M257 307V197.002C257 175.462 239.539 158 218 158C196.461 158 179 175.462 179 197.002V214.028" stroke="#073639" stroke-width="30" stroke-linejoin="round"/>
<path d="M26 451C40.9117 451 53 439.136 53 424.5C53 409.864 40.9117 398 26 398C11.0883 398 -1 409.864 -1 424.5C-1 439.136 11.0883 451 26 451Z" stroke="#073639" stroke-width="30" stroke-linejoin="round"/>
<path d="M49 245.225V134.775C49 113.36 66.461 96 88 96C109.539 96 127 113.36 127 134.775V245.225C127 266.64 109.539 284 88 284C66.461 284 49 266.64 49 245.225Z" stroke="#CFCFAF" stroke-width="30" stroke-linejoin="round"/>
<path d="M942 307H853.925C798.188 307 753 352.219 753 408" stroke="#6DD1D8" stroke-width="30" stroke-linejoin="round"/>
<path d="M1029.5 501C1007.69 501 990 518.461 990 540C990 561.539 1007.69 579 1029.5 579C1051.31 579 1069 561.539 1069 540V501" stroke="#6DD1D8" stroke-width="30" stroke-linejoin="round"/>
<path d="M1217.63 733H1212.53C1183.52 733 1160 709.495 1160 680.5C1160 651.505 1183.52 628 1212.53 628H1372.47C1401.48 628 1425 651.505 1425 680.5C1425 709.495 1401.48 733 1372.47 733H1370.9" stroke="#073639" stroke-width="30" stroke-linejoin="round"/>
<path d="M1120 501H1184.53C1227.87 501 1263 535.922 1263 579" stroke="#89C7AA" stroke-width="30" stroke-linejoin="round"/>
<path d="M451 895C471.987 895 489 878.211 489 857.5C489 836.789 471.987 820 451 820C430.013 820 413 836.789 413 857.5C413 878.211 430.013 895 451 895Z" stroke="#073639" stroke-width="30" stroke-linejoin="round"/>
<path d="M358.404 835.52C344.46 887.644 374.621 941.026 425.76 954.756C476.9 968.487 529.657 937.361 543.597 885.237C557.538 833.114 527.38 779.732 476.241 766" stroke="#CFCFAF" stroke-width="30" stroke-linejoin="round"/>
<path d="M427.659 765.602H242.399C206.696 765.583 177.739 736.08 177.723 699.702C177.706 663.323 206.633 633.846 242.336 633.864C278.038 633.883 306.996 663.385 307.012 699.764H246.692" stroke="#073639" stroke-width="30"/>
<path d="M423.5 552C423.5 560.958 423.5 673.732 423.5 729" stroke="#89C7AA" stroke-width="30" stroke-linejoin="round"/>
<path d="M83.0196 1107C66.9922 1107 54 1094.24 54 1078.5C54 1062.76 66.9922 1050 83.0196 1050H114" stroke="#CFCFAF" stroke-width="30" stroke-linejoin="round"/>
<path d="M-3 1108C-3 1057.19 -43.5181 1016 -93.5 1016C-143.482 1016 -184 1057.19 -184 1108C-184 1158.81 -143.482 1200 -93.5 1200" stroke="#073639" stroke-width="30" stroke-linejoin="round"/>
<path d="M151 1050H188.905C214.363 1050 235 1030.3 235 1006C235 981.698 214.363 962 188.905 962H113.095C87.6373 962 67 981.698 67 1006" stroke="#073639" stroke-width="30" stroke-linejoin="round"/>
<path d="M-2 987C-2 940.612 35.4448 903 81.6361 903H229" stroke="#073639" stroke-width="30" stroke-linejoin="round"/>
<path d="M368.5 652C368.5 655.695 368.5 702.206 368.5 725" stroke="#6DD1D8" stroke-width="30" stroke-linejoin="round"/>
<path d="M484.085 445.5C484.085 468.42 465.713 487 443.042 487C420.372 487 402 468.42 402 445.5C402 422.58 420.372 404 443.042 404H575" stroke="#6DD1D8" stroke-width="30" stroke-linejoin="round"/>
<path d="M628 534.5V476.153C628 459.5 641.434 446 658 446C674.566 446 688 459.5 688 476.153V592.847C688 609.5 674.566 623 658 623C641.434 623 628 609.5 628 592.847V578.75" stroke="#CFCFAF" stroke-width="30" stroke-linejoin="round"/>
<path d="M576 446V597.829C576 643.211 612.936 680 658.5 680C704.064 680 741 643.211 741 597.829V561.957" stroke="#89C7AA" stroke-width="30" stroke-linejoin="round"/>
<path d="M589 311H545.695C514.383 311 489 336.52 489 368" stroke="#073639" stroke-width="30" stroke-linejoin="round"/>
<path d="M627.5 268C627.5 274.07 627.5 366.553 627.5 404" stroke="#6DD1D8" stroke-width="30" stroke-linejoin="round"/>
<path d="M876 490.149V503.332C876 521.927 860.828 537 842.124 537C823.413 537 808.241 521.927 808.241 503.332V492.412C808.241 473.959 793.187 459 774.624 459C756.054 459 741 473.959 741 492.412V505.851" stroke="#89C7AA" stroke-width="30" stroke-linejoin="round"/>
<path d="M-99 667.879C-99 641.437 -77.5094 620 -51 620C-24.4906 620 -3 641.437 -3 667.879V780.121C-3 806.564 -24.4906 828 -51 828C-77.5094 828 -99 806.564 -99 780.121V667.879Z" stroke="#89C7AA" stroke-width="30" stroke-linejoin="round"/>
<path d="M808 885.437C808 863.66 825.459 846 847 846C868.541 846 886 863.66 886 885.437V930" stroke="#6DD1D8" stroke-width="30" stroke-linejoin="round"/>
<path d="M968.5 864C991.42 864 1010 845.644 1010 823C1010 800.356 991.42 782 968.5 782C945.58 782 927 800.356 927 823C927 845.644 945.58 864 968.5 864Z" stroke="#6DD1D8" stroke-width="30" stroke-linejoin="round"/>
<path d="M887.733 1004.5C887.733 1025.21 871.001 1042 850.367 1042C829.732 1042 813 1025.21 813 1004.5C813 983.789 829.732 967 850.367 967H990" stroke="#CFCFAF" stroke-width="30" stroke-linejoin="round"/>
<path d="M841 728H977.163C1028.99 728 1071 770.089 1071 822C1071 873.911 1028.99 916 977.163 916H936.203" stroke="#073639" stroke-width="30" stroke-linejoin="round"/>
<path d="M1039 967H1082.15C1125.7 967 1161 1002.45 1161 1046.19V1127" stroke="#CFCFAF" stroke-width="30" stroke-linejoin="round"/>
<path d="M1081 1073C1095.91 1073 1108 1061.14 1108 1046.5C1108 1031.86 1095.91 1020 1081 1020C1066.09 1020 1054 1031.86 1054 1046.5C1054 1061.14 1066.09 1073 1081 1073Z" stroke="#073639" stroke-width="30" stroke-linejoin="round"/>
<path d="M934.471 1136C934.49 1146 934.51 1156 934.529 1166" stroke="#89C7AA" stroke-width="30" stroke-linejoin="round"/>
<path d="M934.471 1077C934.49 1087 934.51 1097 934.529 1107" stroke="#CFCFAF" stroke-width="30" stroke-linejoin="round"/>
<path d="M747.471 1026C747.49 1036 747.51 1046 747.529 1056" stroke="#89C7AA" stroke-width="30" stroke-linejoin="round"/>
<path d="M747.471 967C747.49 977 747.51 987 747.529 997" stroke="#6DD1D8" stroke-width="30" stroke-linejoin="round"/>
<path d="M687.471 967C687.49 977 687.51 987 687.529 997" stroke="#CFCFAF" stroke-width="30" stroke-linejoin="round"/>
<path d="M271.471 888C271.49 898 271.51 908 271.529 918" stroke="#073639" stroke-width="30" stroke-linejoin="round"/>
<path d="M328.471 472C328.49 482 328.51 492 328.529 502" stroke="#89C7AA" stroke-width="30" stroke-linejoin="round"/>
<path d="M626.471 155C626.49 165 626.51 175 626.529 185" stroke="#89C7AA" stroke-width="30" stroke-linejoin="round"/>
<path d="M626.471 98C626.49 108 626.51 118 626.529 128" stroke="#073639" stroke-width="30" stroke-linejoin="round"/>
<path d="M955.471 632C955.49 642 955.51 652 955.529 662" stroke="#073639" stroke-width="30" stroke-linejoin="round"/>
<path d="M1026.47 632C1026.49 642 1026.51 652 1026.53 662" stroke="#073639" stroke-width="30" stroke-linejoin="round"/>
<path d="M1097.47 632C1097.49 642 1097.51 652 1097.53 662" stroke="#073639" stroke-width="30" stroke-linejoin="round"/>
<rect x="224" y="414" width="752" height="372" fill="#CCF5F5" stroke="#222831" stroke-width="28"/>
<path d="M374.12 581L374.024 540.68L354.248 573.896H347.24L327.56 541.544V581H312.968V513.8H325.832L350.984 555.56L375.752 513.8H388.52L388.712 581H374.12ZM454.864 529.352L431.536 584.168C429.168 590.12 426.224 594.312 422.704 596.744C419.248 599.176 415.056 600.392 410.128 600.392C407.44 600.392 404.784 599.976 402.16 599.144C399.536 598.312 397.392 597.16 395.727 595.688L401.2 585.032C402.352 586.056 403.664 586.856 405.136 587.432C406.672 588.008 408.176 588.296 409.648 588.296C411.696 588.296 413.36 587.784 414.64 586.76C415.92 585.8 417.072 584.168 418.096 581.864L418.288 581.384L395.919 529.352H411.376L425.872 564.392L440.464 529.352H454.864ZM518.306 513.8C524.258 513.8 529.41 514.792 533.762 516.776C538.178 518.76 541.57 521.576 543.938 525.224C546.306 528.872 547.49 533.192 547.49 538.184C547.49 543.112 546.306 547.432 543.938 551.144C541.57 554.792 538.178 557.608 533.762 559.592C529.41 561.512 524.258 562.472 518.306 562.472H504.77V581H489.218V513.8H518.306ZM517.442 549.8C522.114 549.8 525.666 548.808 528.098 546.824C530.53 544.776 531.746 541.896 531.746 538.184C531.746 534.408 530.53 531.528 528.098 529.544C525.666 527.496 522.114 526.472 517.442 526.472H504.77V549.8H517.442ZM571.841 536.168C573.633 533.672 576.033 531.784 579.041 530.504C582.113 529.224 585.633 528.584 589.601 528.584V542.408C587.937 542.28 586.817 542.216 586.241 542.216C581.953 542.216 578.593 543.432 576.161 545.864C573.729 548.232 572.513 551.816 572.513 556.616V581H557.537V529.352H571.841V536.168ZM622.613 581.768C617.173 581.768 612.277 580.648 607.925 578.408C603.637 576.104 600.277 572.936 597.845 568.904C595.413 564.872 594.197 560.296 594.197 555.176C594.197 550.056 595.413 545.48 597.845 541.448C600.277 537.416 603.637 534.28 607.925 532.04C612.277 529.736 617.173 528.584 622.613 528.584C628.053 528.584 632.917 529.736 637.205 532.04C641.493 534.28 644.853 537.416 647.285 541.448C649.717 545.48 650.933 550.056 650.933 555.176C650.933 560.296 649.717 564.872 647.285 568.904C644.853 572.936 641.493 576.104 637.205 578.408C632.917 580.648 628.053 581.768 622.613 581.768ZM622.613 569.48C626.453 569.48 629.589 568.2 632.021 565.64C634.517 563.016 635.765 559.528 635.765 555.176C635.765 550.824 634.517 547.368 632.021 544.808C629.589 542.184 626.453 540.872 622.613 540.872C618.773 540.872 615.605 542.184 613.109 544.808C610.613 547.368 609.365 550.824 609.365 555.176C609.365 559.528 610.613 563.016 613.109 565.64C615.605 568.2 618.773 569.48 622.613 569.48ZM657.103 600.392C651.855 600.392 647.855 599.432 645.103 597.512L649.135 586.664C650.863 587.88 652.975 588.488 655.471 588.488C657.391 588.488 658.895 587.848 659.983 586.568C661.071 585.352 661.615 583.496 661.615 581V529.352H676.591V580.904C676.591 586.92 674.863 591.656 671.407 595.112C668.015 598.632 663.247 600.392 657.103 600.392ZM669.103 522.152C666.351 522.152 664.111 521.352 662.383 519.752C660.655 518.152 659.791 516.168 659.791 513.8C659.791 511.432 660.655 509.448 662.383 507.848C664.111 506.248 666.351 505.448 669.103 505.448C671.855 505.448 674.095 506.216 675.823 507.752C677.551 509.288 678.415 511.208 678.415 513.512C678.415 516.008 677.551 518.088 675.823 519.752C674.095 521.352 671.855 522.152 669.103 522.152ZM740.973 555.368C740.973 555.56 740.877 556.904 740.685 559.4H701.613C702.317 562.6 703.981 565.128 706.605 566.984C709.229 568.84 712.493 569.768 716.397 569.768C719.085 569.768 721.453 569.384 723.501 568.616C725.613 567.784 727.565 566.504 729.357 564.776L737.325 573.416C732.461 578.984 725.357 581.768 716.013 581.768C710.189 581.768 705.037 580.648 700.557 578.408C696.077 576.104 692.621 572.936 690.189 568.904C687.757 564.872 686.541 560.296 686.541 555.176C686.541 550.12 687.725 545.576 690.093 541.544C692.525 537.448 695.821 534.28 699.981 532.04C704.205 529.736 708.909 528.584 714.093 528.584C719.149 528.584 723.725 529.672 727.821 531.848C731.917 534.024 735.117 537.16 737.421 541.256C739.789 545.288 740.973 549.992 740.973 555.368ZM714.189 539.912C710.797 539.912 707.949 540.872 705.645 542.792C703.341 544.712 701.933 547.336 701.421 550.664H726.861C726.349 547.4 724.941 544.808 722.637 542.888C720.333 540.904 717.517 539.912 714.189 539.912ZM775.903 581.768C770.399 581.768 765.439 580.648 761.023 578.408C756.671 576.104 753.247 572.936 750.751 568.904C748.319 564.872 747.103 560.296 747.103 555.176C747.103 550.056 748.319 545.48 750.751 541.448C753.247 537.416 756.671 534.28 761.023 532.04C765.439 529.736 770.399 528.584 775.903 528.584C781.343 528.584 786.079 529.736 790.111 532.04C794.207 534.28 797.183 537.512 799.039 541.736L787.423 547.976C784.735 543.24 780.863 540.872 775.807 540.872C771.903 540.872 768.671 542.152 766.111 544.712C763.551 547.272 762.271 550.76 762.271 555.176C762.271 559.592 763.551 563.08 766.111 565.64C768.671 568.2 771.903 569.48 775.807 569.48C780.927 569.48 784.799 567.112 787.423 562.376L799.039 568.712C797.183 572.808 794.207 576.008 790.111 578.312C786.079 580.616 781.343 581.768 775.903 581.768ZM841.724 578.504C840.252 579.592 838.428 580.424 836.252 581C834.14 581.512 831.9 581.768 829.532 581.768C823.388 581.768 818.62 580.2 815.228 577.064C811.9 573.928 810.236 569.32 810.236 563.24V542.024H802.268V530.504H810.236V517.928H825.212V530.504H838.076V542.024H825.212V563.048C825.212 565.224 825.756 566.92 826.844 568.136C827.996 569.288 829.596 569.864 831.644 569.864C834.012 569.864 836.028 569.224 837.692 567.944L841.724 578.504ZM867.507 581.768C863.219 581.768 859.027 581.256 854.931 580.232C850.835 579.144 847.571 577.8 845.139 576.2L850.131 565.448C852.435 566.92 855.219 568.136 858.483 569.096C861.747 569.992 864.947 570.44 868.083 570.44C874.419 570.44 877.587 568.872 877.587 565.736C877.587 564.264 876.723 563.208 874.995 562.568C873.267 561.928 870.611 561.384 867.027 560.936C862.803 560.296 859.315 559.56 856.563 558.728C853.811 557.896 851.411 556.424 849.363 554.312C847.379 552.2 846.387 549.192 846.387 545.288C846.387 542.024 847.315 539.144 849.171 536.648C851.091 534.088 853.843 532.104 857.427 530.696C861.075 529.288 865.363 528.584 870.291 528.584C873.939 528.584 877.555 529 881.139 529.832C884.787 530.6 887.795 531.688 890.163 533.096L885.171 543.752C880.627 541.192 875.667 539.912 870.291 539.912C867.091 539.912 864.691 540.36 863.091 541.256C861.491 542.152 860.691 543.304 860.691 544.712C860.691 546.312 861.555 547.432 863.283 548.072C865.011 548.712 867.763 549.32 871.539 549.896C875.763 550.6 879.219 551.368 881.907 552.2C884.595 552.968 886.931 554.408 888.915 556.52C890.899 558.632 891.891 561.576 891.891 565.352C891.891 568.552 890.931 571.4 889.011 573.896C887.091 576.392 884.275 578.344 880.563 579.752C876.915 581.096 872.563 581.768 867.507 581.768Z" fill="#222831"/>
<path d="M623.74 699.995C623.74 686.881 613.109 676.25 599.995 676.25C586.881 676.25 576.25 686.881 576.25 699.995C576.25 713.109 586.881 723.74 599.995 723.74C613.109 723.74 623.74 713.109 623.74 699.995Z" fill="#DDDDDD"/>
<path d="M600 675C596.783 675.003 593.596 675.627 590.615 676.838L612.264 717.98L608.678 676.773H609.243C609.236 676.77 609.228 676.768 609.221 676.765H608.678V676.556C605.9 675.527 602.962 675.001 600 675L600 675ZM614.833 679.878L617.611 717.72C619.949 715.399 621.806 712.638 623.074 709.597C624.342 706.556 624.997 703.295 625 700C625 696.084 624.079 692.223 622.314 688.728C620.548 685.233 617.985 682.202 614.833 679.878V679.878ZM581.83 682.839C577.446 687.478 575.003 693.617 575 700C575.001 703.78 575.859 707.511 577.51 710.912C579.161 714.312 581.562 717.294 584.531 719.633L581.83 682.839ZM587.439 683.071L590.558 723.137C593.555 724.364 596.762 724.996 600 725C603.015 724.997 606.004 724.448 608.823 723.38V723.38H608.674L587.439 683.071Z" fill="#222831"/>
</g>
<defs>
<clipPath id="clip0_8_3">
<rect width="1200" height="1200" fill="white"/>
</clipPath>
</defs>
</svg>
